<svg width="700" height="700" viewBox="0 0 700 700" fill="none" xmlns="http://www.w3.org/2000/svg">
<path d="M134.554 625.006C254.702 683.96 449.554 683.96 569.632 625.006C689.71 566.052 689.766 470.446 569.632 411.492C449.498 352.538 254.702 352.524 134.554 411.492C14.406 470.46 14.406 566.08 134.554 625.006Z" fill="#F5F5F5"/>
<path d="M201.754 617.292C237.862 617.292 267.134 603.34 267.134 586.128C267.134 568.917 237.862 554.964 201.754 554.964C165.646 554.964 136.374 568.917 136.374 586.128C136.374 603.34 165.646 617.292 201.754 617.292Z" fill="#E0E0E0"/>
<path d="M530.614 525.62C566.722 525.62 595.994 511.668 595.994 494.456C595.994 477.245 566.722 463.292 530.614 463.292C494.506 463.292 465.234 477.245 465.234 494.456C465.234 511.668 494.506 525.62 530.614 525.62Z" fill="#E0E0E0"/>
<path d="M282.464 360.28L227.01 392.298C224.753 393.77 223.152 396.057 222.544 398.682L208.768 478.244C208.614 479.485 208.814 480.743 209.344 481.875C209.874 483.007 210.713 483.966 211.764 484.642L247.52 505.278C248.674 505.865 249.95 506.17 251.244 506.17C252.538 506.17 253.814 505.865 254.968 505.278L331.38 461.164C332.505 460.569 333.447 459.679 334.104 458.588C334.761 457.498 335.108 456.249 335.108 454.976C335.108 453.703 334.761 452.455 334.104 451.364C333.447 450.274 332.505 449.383 331.38 448.788L303.884 432.912C302.772 432.196 301.824 431.254 301.1 430.146C300.376 429.039 299.894 427.792 299.684 426.486L293.566 366.454C293.388 365.187 292.946 363.971 292.269 362.886C291.591 361.801 290.693 360.87 289.632 360.154C288.51 359.615 287.278 359.345 286.033 359.367C284.788 359.389 283.566 359.702 282.464 360.28Z" fill="#263238"/>
<path d="M251.244 491.306V506.188C252.541 506.208 253.822 505.899 254.968 505.292L331.38 461.178C332.443 460.512 333.334 459.604 333.981 458.529C334.628 457.454 335.012 456.242 335.104 454.99C335.03 453.529 334.518 452.124 333.634 450.958H321.132L251.244 491.306Z" fill="#455A64"/>
<path d="M289.45 364.34L233.996 396.344C231.739 397.819 230.143 400.113 229.544 402.742L217 474.954C216.845 476.195 217.043 477.454 217.574 478.586C218.104 479.718 218.944 480.677 219.996 481.352L247.492 497.228C248.648 497.808 249.923 498.11 251.216 498.11C252.509 498.11 253.784 497.808 254.94 497.228L331.38 453.1C333.438 451.91 333.438 449.992 331.38 448.802L303.884 432.926C302.772 432.21 301.824 431.268 301.1 430.16C300.376 429.053 299.894 427.806 299.684 426.5L293.566 366.468C293.578 365.985 293.454 365.508 293.208 365.093C292.961 364.677 292.603 364.338 292.174 364.116C291.745 363.895 291.261 363.798 290.78 363.837C290.298 363.877 289.837 364.051 289.45 364.34Z" fill="#263238"/>
<path d="M331.38 448.802L303.884 432.926C302.782 432.231 301.849 431.298 301.154 430.196L217.56 478.468C218.062 479.662 218.923 480.67 220.024 481.352L247.52 497.228C248.676 497.808 249.951 498.11 251.244 498.11C252.537 498.11 253.812 497.808 254.968 497.228L331.38 453.1C333.438 451.91 333.438 449.992 331.38 448.802Z" fill="#37474F"/>
<path d="M106.246 518.48L102.704 516.436C101.184 515.446 99.9183 514.111 99.011 512.539C98.1036 510.968 97.5798 509.204 97.482 507.392V269.28C97.5808 267.472 98.1053 265.713 99.0127 264.147C99.9202 262.58 101.185 261.25 102.704 260.264L393.624 93.2444C395.241 92.4263 397.027 92 398.839 92C400.651 92 402.437 92.4263 404.054 93.2444L406.77 94.8124C408.289 95.7998 409.553 97.1327 410.458 98.7022C411.363 100.272 411.884 102.033 411.978 103.842V342.08C411.881 343.889 411.358 345.649 410.454 347.218C409.549 348.787 408.287 350.12 406.77 351.11L116.676 518.48C115.06 519.302 113.273 519.73 111.461 519.73C109.649 519.73 107.862 519.302 106.246 518.48Z" fill="#455A64"/>
<path d="M118.454 275.412L99.022 264.212C98.0777 265.765 97.5475 267.534 97.482 269.35V507.448C97.5798 509.26 98.1036 511.024 99.011 512.595C99.9183 514.167 101.184 515.502 102.704 516.492L106.246 518.48C107.862 519.302 109.649 519.73 111.461 519.73C113.273 519.73 115.06 519.302 116.676 518.48L118.454 517.458V275.412Z" fill="#263238"/>
<path d="M111.468 515.526V277.4C111.566 275.592 112.089 273.832 112.994 272.264C113.899 270.695 115.16 269.361 116.676 268.37L406.77 100.888C409.654 99.2224 411.978 100.566 411.978 103.898V342.08C411.881 343.889 411.358 345.649 410.454 347.218C409.549 348.787 408.287 350.12 406.77 351.11L116.676 518.48C113.806 520.202 111.468 518.844 111.468 515.526Z" fill="#37474F"/>
<path d="M247.688 426.766L275.17 410.89C277.228 409.7 278.908 410.554 278.908 412.78C278.814 414.033 278.426 415.245 277.777 416.32C277.128 417.395 276.235 418.302 275.17 418.968L247.688 434.83C245.63 436.02 243.964 435.18 243.964 432.954C244.056 431.703 244.44 430.491 245.087 429.416C245.734 428.341 246.625 427.433 247.688 426.766Z" fill="#E0E0E0"/>
<path d="M124.824 275.65L398.034 117.45C399.672 116.498 401.002 117.254 401.002 119.158V326.68C400.947 327.714 400.65 328.72 400.135 329.618C399.619 330.515 398.899 331.279 398.034 331.846L124.838 489.612C123.186 490.564 121.856 489.794 121.856 487.904V280.816C121.911 279.783 122.208 278.776 122.723 277.879C123.239 276.982 123.959 276.218 124.824 275.65Z" fill="white"/>
<path d="M135.016 279.626L385.672 134.88C390.222 132.262 393.946 134.404 393.946 139.654V319.904C393.872 321.236 393.487 322.531 392.82 323.686C392.154 324.842 391.226 325.824 390.11 326.554L133.532 474.66C131.418 475.892 129.696 474.884 129.696 472.448V288.88C129.794 287.029 130.327 285.226 131.251 283.618C132.176 282.011 133.465 280.643 135.016 279.626Z" fill="#E6E6E6"/>
<path d="M237.79 248.154L375.928 168.396V196.144L237.79 275.888V248.154Z" fill="#F5F5F5"/>
<path d="M237.79 286.878L375.928 207.12V276.616L237.79 356.374V286.878Z" fill="#F0F0F0"/>
<path d="M393.946 144.022V139.696C393.946 134.446 390.222 132.304 385.672 134.922L135.072 279.626C133.525 280.64 132.238 282.004 131.314 283.606C130.39 285.208 129.855 287.005 129.752 288.852V296.566L393.946 144.022Z" fill="#169387"/>
<path d="M359.254 153.85C358.434 154.398 357.753 155.131 357.267 155.989C356.781 156.847 356.502 157.807 356.454 158.792C356.454 160.612 357.728 161.34 359.254 160.43C360.075 159.886 360.756 159.157 361.242 158.301C361.729 157.445 362.007 156.486 362.054 155.502C362.11 153.682 360.836 152.954 359.254 153.85Z" fill="white"/>
<path d="M370.566 147.326C369.744 147.873 369.062 148.605 368.576 149.463C368.09 150.322 367.812 151.283 367.766 152.268C367.766 154.074 369.04 154.816 370.566 153.906C371.384 153.36 372.064 152.63 372.55 151.774C373.036 150.919 373.316 149.961 373.366 148.978C373.408 147.158 372.134 146.416 370.566 147.326Z" fill="white"/>
<path d="M381.864 140.802C381.046 141.349 380.366 142.079 379.88 142.935C379.394 143.79 379.114 144.748 379.064 145.73C379.064 147.55 380.338 148.292 381.864 147.382C382.686 146.836 383.368 146.104 383.854 145.246C384.34 144.387 384.618 143.426 384.664 142.44C384.72 140.634 383.446 139.892 381.864 140.802Z" fill="white"/>
<path d="M141.694 395.28C141.439 395.278 141.188 395.211 140.966 395.084C140.741 394.956 140.554 394.771 140.424 394.547C140.293 394.323 140.225 394.069 140.224 393.81V303.65C140.216 303.391 140.279 303.135 140.408 302.91C140.536 302.685 140.725 302.501 140.952 302.376L218.904 257.212C219.131 257.085 219.386 257.018 219.646 257.018C219.906 257.018 220.162 257.085 220.388 257.212C220.614 257.343 220.802 257.531 220.932 257.757C221.062 257.983 221.13 258.239 221.13 258.5V348.73C221.129 348.989 221.061 349.243 220.93 349.467C220.8 349.691 220.613 349.876 220.388 350.004L142.436 395.084C142.21 395.212 141.954 395.28 141.694 395.28ZM143.178 304.504V391.304L218.176 347.904V261.104L143.178 304.504Z" fill="#FAFAFA"/>
<path d="M168.56 362.73C165.833 362.76 163.146 362.064 160.776 360.714C155.176 357.48 152.082 350.788 152.082 341.842C152.082 324.09 164.57 302.39 179.928 293.5C187.642 289.034 194.978 288.348 200.578 291.582C206.178 294.816 209.272 301.508 209.272 310.454C209.272 328.234 196.77 349.92 181.412 358.81C177.544 361.217 173.113 362.569 168.56 362.73ZM192.794 292.534C188.757 292.694 184.832 293.911 181.412 296.062C166.866 304.462 155.036 325.028 155.036 341.842C155.036 349.682 157.598 355.478 162.246 358.152C166.894 360.826 173.18 360.154 179.928 356.248C194.474 347.848 206.318 327.296 206.318 310.454C206.318 302.614 203.756 296.818 199.094 294.144C197.174 293.058 195 292.502 192.794 292.534Z" fill="#FAFAFA"/>
<path d="M475.328 407.362L469.91 404.226C469.781 404.158 469.636 404.122 469.49 404.122C469.344 404.122 469.199 404.158 469.07 404.226L459.27 408.636C459.115 408.71 458.947 408.748 458.775 408.749C458.604 408.75 458.435 408.713 458.28 408.641C458.125 408.568 457.988 408.463 457.878 408.331C457.768 408.2 457.689 408.046 457.646 407.88C457.117 406.179 456.384 404.547 455.462 403.022C455.255 402.667 455.133 402.268 455.107 401.857C455.08 401.447 455.149 401.036 455.308 400.656L461.832 387.496C461.993 387.163 462.023 386.781 461.917 386.426C461.811 386.071 461.576 385.769 461.258 385.578L454.174 381.49C454.017 381.39 453.842 381.323 453.659 381.291C453.476 381.259 453.288 381.265 453.107 381.306C452.926 381.348 452.755 381.425 452.604 381.534C452.453 381.642 452.325 381.78 452.228 381.938L444.094 394.174C443.839 394.497 443.516 394.76 443.149 394.944C442.781 395.127 442.377 395.228 441.966 395.238C441.031 395.213 440.095 395.256 439.166 395.364V386.418L433.72 383.282C433.578 383.219 433.422 383.193 433.268 383.208C433.113 383.222 432.965 383.277 432.838 383.366L421.834 389.722C421.483 389.952 421.185 390.252 420.958 390.604C420.732 390.956 420.581 391.352 420.518 391.766L419.426 404.016C419.3 404.881 418.897 405.682 418.278 406.298C416.098 408.317 414.054 410.478 412.16 412.766C411.897 413.064 411.554 413.28 411.172 413.389C410.79 413.498 410.385 413.496 410.004 413.382L402.934 410.918C402.571 410.804 402.18 410.814 401.823 410.946C401.466 411.078 401.162 411.324 400.96 411.646L392.868 425.646C392.686 425.983 392.622 426.372 392.685 426.749C392.748 427.127 392.936 427.473 393.218 427.732L398.888 432.618C399.177 432.893 399.382 433.244 399.478 433.631C399.575 434.018 399.56 434.424 399.434 434.802C398.395 437.583 397.549 440.432 396.9 443.328C396.671 444.168 396.181 444.914 395.5 445.456L385.448 452.526C385.12 452.79 384.851 453.119 384.658 453.493C384.465 453.866 384.353 454.276 384.328 454.696V467.394C384.315 467.554 384.344 467.715 384.413 467.86C384.482 468.005 384.588 468.13 384.72 468.22L390.138 471.342L398.188 467.534C398.486 468.177 398.817 468.803 399.182 469.41C399.389 469.766 399.51 470.165 399.537 470.575C399.564 470.986 399.495 471.397 399.336 471.776L392.812 484.936C392.651 485.27 392.621 485.652 392.727 486.007C392.833 486.362 393.068 486.664 393.386 486.854L400.47 490.942C400.792 491.123 401.17 491.177 401.53 491.095C401.889 491.012 402.206 490.798 402.416 490.494L410.55 478.258C410.805 477.936 411.128 477.673 411.495 477.489C411.863 477.305 412.267 477.205 412.678 477.194C414.462 477.232 416.243 477.053 417.984 476.662C418.15 476.616 418.324 476.608 418.493 476.637C418.663 476.666 418.824 476.733 418.964 476.832C419.105 476.931 419.222 477.06 419.307 477.21C419.391 477.36 419.442 477.527 419.454 477.698L420.518 488.38C420.523 488.532 420.564 488.681 420.64 488.813C420.716 488.945 420.823 489.056 420.952 489.136L426.37 492.258L432.866 482.71C433.218 482.48 433.518 482.177 433.744 481.822C433.971 481.468 434.12 481.069 434.182 480.652L435.274 468.416C435.338 468.017 435.499 467.64 435.743 467.317C435.987 466.995 436.307 466.738 436.674 466.568C439.899 465.167 442.804 463.123 445.214 460.562C445.497 460.281 445.849 460.079 446.235 459.978C446.622 459.877 447.028 459.881 447.412 459.988L451.752 461.514C452.117 461.629 452.509 461.619 452.867 461.484C453.225 461.35 453.527 461.099 453.726 460.772L461.818 446.772C462 446.435 462.064 446.047 462.001 445.669C461.938 445.291 461.75 444.946 461.468 444.686L457.744 441.466C457.456 441.187 457.247 440.837 457.139 440.451C457.031 440.064 457.027 439.656 457.128 439.268C457.942 435.95 458.286 432.533 458.15 429.118C458.154 428.704 458.251 428.295 458.432 427.922C458.614 427.549 458.876 427.222 459.2 426.962L469.252 419.878C469.58 419.618 469.85 419.292 470.043 418.92C470.236 418.549 470.348 418.14 470.372 417.722L475.174 411.968L475.328 407.362ZM427.28 457.762C417.018 463.698 410.634 459.484 410.634 447.64C410.634 435.796 419.118 421.264 429.38 415.342C439.642 409.42 445.872 413.718 445.872 425.576C445.872 437.434 437.542 451.784 427.28 457.706V457.762Z" fill="#169387"/>
<path opacity="0.1" d="M475.328 407.362L469.91 404.226C469.781 404.158 469.636 404.122 469.49 404.122C469.344 404.122 469.199 404.158 469.07 404.226L459.27 408.636C459.115 408.71 458.947 408.748 458.775 408.749C458.604 408.75 458.435 408.713 458.28 408.641C458.125 408.568 457.988 408.463 457.878 408.331C457.768 408.2 457.689 408.046 457.646 407.88C457.117 406.179 456.384 404.547 455.462 403.022C455.255 402.667 455.133 402.268 455.107 401.857C455.08 401.447 455.149 401.036 455.308 400.656L461.832 387.496C461.993 387.163 462.023 386.781 461.917 386.426C461.811 386.071 461.576 385.769 461.258 385.578L454.174 381.49C454.017 381.39 453.842 381.323 453.659 381.291C453.476 381.259 453.288 381.265 453.107 381.306C452.926 381.348 452.755 381.425 452.604 381.534C452.453 381.642 452.325 381.78 452.228 381.938L444.094 394.174C443.839 394.497 443.516 394.76 443.149 394.944C442.781 395.127 442.377 395.228 441.966 395.238C441.031 395.213 440.095 395.256 439.166 395.364V386.418L433.72 383.282C433.578 383.219 433.422 383.193 433.268 383.208C433.113 383.222 432.965 383.277 432.838 383.366L421.834 389.722C421.483 389.952 421.185 390.252 420.958 390.604C420.732 390.956 420.581 391.352 420.518 391.766L419.426 404.016C419.3 404.881 418.897 405.682 418.278 406.298C416.098 408.317 414.054 410.478 412.16 412.766C411.897 413.064 411.554 413.28 411.172 413.389C410.79 413.498 410.385 413.496 410.004 413.382L402.934 410.918C402.571 410.804 402.18 410.814 401.823 410.946C401.466 411.078 401.162 411.324 400.96 411.646L392.868 425.646C392.686 425.983 392.622 426.372 392.685 426.749C392.748 427.127 392.936 427.473 393.218 427.732L398.888 432.618C399.177 432.893 399.382 433.244 399.478 433.631C399.575 434.018 399.56 434.424 399.434 434.802C398.395 437.583 397.549 440.432 396.9 443.328C396.671 444.168 396.181 444.914 395.5 445.456L385.448 452.526C385.12 452.79 384.851 453.119 384.658 453.493C384.465 453.866 384.353 454.276 384.328 454.696V467.394C384.315 467.554 384.344 467.715 384.413 467.86C384.482 468.005 384.588 468.13 384.72 468.22L390.138 471.342L398.188 467.534C398.486 468.177 398.817 468.803 399.182 469.41C399.389 469.766 399.51 470.165 399.537 470.575C399.564 470.986 399.495 471.397 399.336 471.776L392.812 484.936C392.651 485.27 392.621 485.652 392.727 486.007C392.833 486.362 393.068 486.664 393.386 486.854L400.47 490.942C400.792 491.123 401.17 491.177 401.53 491.095C401.889 491.012 402.206 490.798 402.416 490.494L410.55 478.258C410.805 477.936 411.128 477.673 411.495 477.489C411.863 477.305 412.267 477.205 412.678 477.194C414.462 477.232 416.243 477.053 417.984 476.662C418.15 476.616 418.324 476.608 418.493 476.637C418.663 476.666 418.824 476.733 418.964 476.832C419.105 476.931 419.222 477.06 419.307 477.21C419.391 477.36 419.442 477.527 419.454 477.698L420.518 488.38C420.523 488.532 420.564 488.681 420.64 488.813C420.716 488.945 420.823 489.056 420.952 489.136L426.37 492.258L432.866 482.71C433.218 482.48 433.518 482.177 433.744 481.822C433.971 481.468 434.12 481.069 434.182 480.652L435.274 468.416C435.338 468.017 435.499 467.64 435.743 467.317C435.987 466.995 436.307 466.738 436.674 466.568C439.899 465.167 442.804 463.123 445.214 460.562C445.497 460.281 445.849 460.079 446.235 459.978C446.622 459.877 447.028 459.881 447.412 459.988L451.752 461.514C452.117 461.629 452.509 461.619 452.867 461.484C453.225 461.35 453.527 461.099 453.726 460.772L461.818 446.772C462 446.435 462.064 446.047 462.001 445.669C461.938 445.291 461.75 444.946 461.468 444.686L457.744 441.466C457.456 441.187 457.247 440.837 457.139 440.451C457.031 440.064 457.027 439.656 457.128 439.268C457.942 435.95 458.286 432.533 458.15 429.118C458.154 428.704 458.251 428.295 458.432 427.922C458.614 427.549 458.876 427.222 459.2 426.962L469.252 419.878C469.58 419.618 469.85 419.292 470.043 418.92C470.236 418.549 470.348 418.14 470.372 417.722L475.174 411.968L475.328 407.362ZM427.28 457.762C417.018 463.698 410.634 459.484 410.634 447.64C410.634 435.796 419.118 421.264 429.38 415.342C439.642 409.42 445.872 413.718 445.872 425.576C445.872 437.434 437.542 451.784 427.28 457.706V457.762Z" fill="black"/>
<path d="M459.662 391.878L461.818 387.524C461.979 387.191 462.009 386.809 461.903 386.454C461.797 386.099 461.562 385.797 461.244 385.606L454.16 381.518C454.003 381.418 453.828 381.351 453.645 381.319C453.462 381.288 453.274 381.293 453.093 381.334C452.912 381.376 452.741 381.453 452.59 381.562C452.439 381.67 452.311 381.808 452.214 381.966L444.08 394.202C443.926 394.403 443.742 394.577 443.534 394.72L452.634 399.984L459.662 391.878Z" fill="#169387"/>
<path d="M396.2 444.672C395.995 444.992 395.735 445.272 395.43 445.498L385.378 452.568C385.109 452.778 384.886 453.04 384.72 453.338L390.852 456.88L404.194 449.278L396.2 444.672Z" fill="#169387"/>
<path d="M402.318 410.862C402.036 410.873 401.761 410.952 401.517 411.094C401.273 411.235 401.067 411.435 400.918 411.674L392.826 425.674C392.662 425.988 392.598 426.345 392.644 426.696L399.644 430.728L410.718 415.748L402.318 410.862Z" fill="#169387"/>
<path d="M420.686 391.08L429.31 396.064L439.11 390.464V386.516L433.664 383.38C433.522 383.317 433.367 383.291 433.212 383.306C433.057 383.32 432.909 383.375 432.782 383.464L421.778 389.82C421.299 390.126 420.92 390.563 420.686 391.08Z" fill="#169387"/>
<path d="M475.328 407.362C475.195 407.289 475.046 407.25 474.894 407.25C474.742 407.25 474.593 407.289 474.46 407.362L464.66 411.786C464.505 411.86 464.337 411.898 464.165 411.899C463.994 411.9 463.825 411.863 463.67 411.791C463.515 411.718 463.378 411.613 463.268 411.481C463.158 411.35 463.079 411.196 463.036 411.03C462.672 409.843 462.203 408.691 461.636 407.586L469 404.24C469.132 404.174 469.279 404.139 469.427 404.139C469.575 404.139 469.721 404.174 469.854 404.24L475.328 407.362Z" fill="#169387"/>
<g opacity="0.4">
<path opacity="0.4" d="M459.662 391.878L461.818 387.524C461.979 387.191 462.009 386.809 461.903 386.454C461.797 386.099 461.562 385.797 461.244 385.606L454.16 381.518C454.003 381.418 453.828 381.351 453.645 381.319C453.462 381.288 453.274 381.293 453.093 381.334C452.912 381.376 452.741 381.453 452.59 381.562C452.439 381.67 452.311 381.808 452.214 381.966L444.08 394.202C443.926 394.403 443.742 394.577 443.534 394.72L452.634 399.984L459.662 391.878Z" fill="white"/>
<path opacity="0.4" d="M396.2 444.672C395.995 444.992 395.735 445.272 395.43 445.498L385.378 452.568C385.109 452.778 384.886 453.04 384.72 453.338L390.852 456.88L404.194 449.278L396.2 444.672Z" fill="white"/>
<path opacity="0.4" d="M402.318 410.862C402.036 410.873 401.761 410.952 401.517 411.094C401.273 411.235 401.067 411.435 400.918 411.674L392.826 425.674C392.662 425.988 392.598 426.345 392.644 426.696L399.644 430.728L410.718 415.748L402.318 410.862Z" fill="white"/>
<path opacity="0.4" d="M420.686 391.08L429.31 396.064L439.11 390.464V386.516L433.664 383.38C433.522 383.317 433.367 383.291 433.212 383.306C433.057 383.32 432.909 383.375 432.782 383.464L421.778 389.82C421.299 390.126 420.92 390.563 420.686 391.08Z" fill="white"/>
<path opacity="0.4" d="M475.328 407.362C475.195 407.289 475.046 407.25 474.894 407.25C474.742 407.25 474.593 407.289 474.46 407.362L464.66 411.786C464.505 411.86 464.337 411.898 464.165 411.899C463.994 411.9 463.825 411.863 463.67 411.791C463.515 411.718 463.378 411.613 463.268 411.481C463.158 411.35 463.079 411.196 463.036 411.03C462.672 409.843 462.203 408.691 461.636 407.586L469 404.24C469.132 404.174 469.279 404.139 469.427 404.139C469.575 404.139 469.721 404.174 469.854 404.24L475.328 407.362Z" fill="white"/>
</g>
<path d="M475.72 420.886V408.174C475.742 408.018 475.718 407.859 475.653 407.716C475.587 407.573 475.482 407.451 475.349 407.366C475.217 407.28 475.063 407.235 474.905 407.234C474.748 407.234 474.593 407.278 474.46 407.362L464.66 411.786C464.504 411.86 464.335 411.898 464.163 411.899C463.991 411.9 463.821 411.863 463.664 411.791C463.508 411.719 463.37 411.613 463.259 411.482C463.148 411.351 463.067 411.196 463.022 411.03C462.493 409.329 461.76 407.697 460.838 406.172C460.636 405.815 460.519 405.415 460.495 405.006C460.47 404.596 460.54 404.185 460.698 403.806L467.222 390.632C467.381 390.299 467.409 389.918 467.3 389.566C467.191 389.213 466.953 388.914 466.634 388.728L459.55 384.626C459.226 384.447 458.847 384.395 458.487 384.48C458.127 384.566 457.812 384.783 457.604 385.088L449.47 397.324C449.22 397.651 448.898 397.916 448.529 398.098C448.16 398.28 447.754 398.375 447.342 398.374C445.562 398.342 443.785 398.525 442.05 398.92C441.884 398.966 441.71 398.975 441.541 398.946C441.371 398.916 441.21 398.85 441.07 398.751C440.929 398.651 440.812 398.522 440.727 398.372C440.643 398.223 440.592 398.056 440.58 397.884L439.502 387.188C439.505 387.033 439.465 386.879 439.384 386.745C439.304 386.612 439.188 386.504 439.049 386.433C438.91 386.363 438.753 386.334 438.598 386.348C438.443 386.363 438.295 386.421 438.172 386.516L427.182 392.872C426.83 393.1 426.531 393.4 426.304 393.753C426.077 394.105 425.928 394.502 425.866 394.916L424.76 407.166C424.63 408.03 424.228 408.829 423.612 409.448C421.433 411.463 419.394 413.624 417.508 415.916C417.242 416.215 416.897 416.431 416.513 416.54C416.128 416.65 415.721 416.647 415.338 416.532L408.338 414.068C407.973 413.951 407.579 413.959 407.219 414.091C406.859 414.223 406.553 414.471 406.35 414.796L398.272 428.796C398.088 429.133 398.022 429.522 398.085 429.9C398.149 430.278 398.338 430.624 398.622 430.882L404.292 435.768C404.58 436.041 404.784 436.39 404.881 436.774C404.977 437.158 404.963 437.562 404.838 437.938C403.803 440.726 402.952 443.579 402.29 446.478C402.063 447.319 401.572 448.065 400.89 448.606L390.852 455.606C390.519 455.866 390.245 456.194 390.05 456.568C389.854 456.943 389.741 457.355 389.718 457.776V470.474C389.696 470.63 389.72 470.789 389.785 470.933C389.851 471.076 389.956 471.197 390.089 471.283C390.221 471.368 390.375 471.414 390.533 471.414C390.69 471.415 390.845 471.371 390.978 471.286L400.778 466.876C400.933 466.8 401.103 466.76 401.276 466.757C401.449 466.755 401.62 466.792 401.777 466.864C401.934 466.937 402.073 467.043 402.183 467.176C402.294 467.309 402.373 467.465 402.416 467.632C402.932 469.361 403.666 471.017 404.6 472.56C404.797 472.922 404.912 473.323 404.936 473.735C404.96 474.146 404.893 474.558 404.74 474.94L398.216 488.1C398.058 488.434 398.03 488.815 398.136 489.169C398.241 489.523 398.475 489.826 398.79 490.018L405.874 494.106C406.199 494.29 406.581 494.344 406.944 494.259C407.308 494.173 407.625 493.954 407.834 493.644L415.968 481.422C416.223 481.1 416.546 480.837 416.913 480.653C417.281 480.469 417.685 480.368 418.096 480.358C419.875 480.396 421.652 480.217 423.388 479.826C423.554 479.78 423.728 479.772 423.897 479.801C424.067 479.83 424.228 479.897 424.368 479.996C424.509 480.095 424.626 480.224 424.711 480.374C424.795 480.524 424.846 480.691 424.858 480.862L425.936 491.544C425.93 491.701 425.969 491.857 426.048 491.992C426.127 492.128 426.243 492.238 426.383 492.31C426.522 492.382 426.68 492.413 426.836 492.399C426.992 492.385 427.142 492.326 427.266 492.23L438.256 485.874C438.608 485.644 438.908 485.341 439.134 484.986C439.361 484.632 439.51 484.233 439.572 483.816L440.678 471.58C440.812 470.714 441.213 469.911 441.826 469.284C444.005 467.269 446.044 465.108 447.93 462.816C448.197 462.524 448.541 462.313 448.922 462.207C449.303 462.1 449.706 462.103 450.086 462.214L457.156 464.678C457.523 464.792 457.917 464.781 458.277 464.646C458.636 464.512 458.941 464.262 459.144 463.936L467.222 449.936C467.403 449.601 467.467 449.216 467.403 448.84C467.34 448.465 467.153 448.121 466.872 447.864L461.202 442.978C460.914 442.703 460.711 442.351 460.614 441.965C460.517 441.579 460.532 441.173 460.656 440.794C461.693 438.012 462.544 435.164 463.204 432.268C463.431 431.428 463.922 430.682 464.604 430.14L474.656 423.056C474.978 422.791 475.239 422.461 475.423 422.086C475.606 421.712 475.707 421.303 475.72 420.886ZM432.684 460.828C422.422 466.764 414.106 461.948 414.106 450.104C414.106 438.26 422.422 423.84 432.684 417.904C442.946 411.968 451.276 416.784 451.276 428.642C451.276 440.5 442.96 454.906 432.684 460.828Z" fill="#169387"/>
<path d="M421.148 506.93C420.998 506.853 420.828 506.82 420.66 506.835C420.491 506.85 420.331 506.912 420.196 507.014L415.562 510.08C415.256 510.259 414.894 510.315 414.548 510.237C414.203 510.159 413.9 509.953 413.7 509.66C413.428 509.271 413.129 508.901 412.804 508.554C412.531 508.266 412.337 507.913 412.241 507.527C412.145 507.142 412.151 506.739 412.258 506.356L419.622 501.694L414.12 498.516C414.009 498.443 413.886 498.391 413.756 498.362L410.27 497.578C409.886 497.512 409.491 497.565 409.138 497.73C408.785 497.895 408.491 498.165 408.296 498.502L405.006 504.746C404.558 505.474 403.854 506.008 403.032 506.244H402.822C402.965 505.788 403.063 505.319 403.116 504.844L397.6 501.68C397.437 501.591 397.25 501.557 397.066 501.582C396.882 501.607 396.711 501.691 396.578 501.82L391.342 505.88C391.03 506.161 390.78 506.504 390.608 506.888C390.437 507.271 390.348 507.686 390.348 508.106L390.656 513.076C390.666 513.948 390.379 514.797 389.844 515.484C388.982 516.516 388.174 517.59 387.422 518.704C387.174 519.036 386.853 519.305 386.484 519.492C386.115 519.679 385.708 519.779 385.294 519.782L381.934 519.614C381.533 519.612 381.139 519.722 380.797 519.933C380.456 520.143 380.18 520.445 380.002 520.804L376.838 527.888C376.718 528.19 376.708 528.524 376.807 528.833C376.907 529.142 377.111 529.407 377.384 529.582L381.108 531.724C381.226 532.032 381.256 532.367 381.192 532.69C380.931 533.807 380.734 534.939 380.604 536.078C380.474 536.943 380.078 537.746 379.47 538.374L374.836 542.574C374.546 542.873 374.326 543.233 374.193 543.628C374.06 544.023 374.016 544.443 374.066 544.856L374.934 549.91C374.949 550.049 374.994 550.182 375.067 550.301C375.139 550.419 375.237 550.52 375.354 550.596L380.884 553.788L380.954 547.46C381.26 547.282 381.622 547.226 381.968 547.304C382.313 547.382 382.616 547.588 382.816 547.88C383.089 548.273 383.393 548.643 383.726 548.986C383.999 549.277 384.192 549.634 384.285 550.022C384.379 550.41 384.369 550.815 384.258 551.198L381.892 557.68C381.795 557.931 381.788 558.208 381.873 558.463C381.957 558.718 382.127 558.936 382.354 559.08L387.884 562.272L389.382 558.156L391.51 552.864C391.965 552.136 392.673 551.603 393.498 551.366C394.228 551.186 394.944 550.952 395.64 550.666C395.795 550.59 395.965 550.549 396.138 550.546C396.311 550.543 396.483 550.578 396.64 550.649C396.798 550.72 396.938 550.825 397.051 550.956C397.164 551.087 397.246 551.242 397.292 551.408L398.482 555.328C398.511 555.456 398.566 555.576 398.643 555.682C398.72 555.788 398.817 555.877 398.93 555.944L404.53 559.136L403.55 553.018L405.244 551.688C405.561 551.412 405.815 551.069 405.986 550.685C406.158 550.3 406.244 549.883 406.238 549.462L405.93 544.492C405.929 543.622 406.214 542.776 406.742 542.084C407.596 541.062 408.898 540.516 409.654 539.396C410.088 538.766 410.55 537.758 411.306 537.786L414.666 537.954C415.065 537.956 415.457 537.848 415.799 537.64C416.14 537.432 416.416 537.134 416.598 536.778L419.748 529.68C419.882 529.349 419.885 528.978 419.755 528.645C419.624 528.312 419.372 528.041 419.048 527.888L416.332 526.74C415.989 526.578 415.71 526.304 415.543 525.964C415.375 525.623 415.327 525.235 415.408 524.864C415.659 523.746 415.851 522.615 415.982 521.476C416.112 520.612 416.508 519.809 417.116 519.18L421.75 514.98C422.17 514.549 422.44 513.995 422.52 513.398L426.72 510.122L421.148 506.93ZM400.148 539.62C394.548 544.072 389.06 542.854 388.038 536.904C387.016 530.954 391.65 523.38 397.32 518.928C402.99 514.476 407.54 514.812 408.52 520.762C409.5 526.712 405.776 535.154 400.106 539.62H400.148Z" fill="#169387"/>
<path opacity="0.1" d="M421.148 506.93C420.998 506.853 420.828 506.82 420.66 506.835C420.491 506.85 420.331 506.912 420.196 507.014L415.562 510.08C415.256 510.259 414.894 510.315 414.548 510.237C414.203 510.159 413.9 509.953 413.7 509.66C413.428 509.271 413.129 508.901 412.804 508.554C412.531 508.266 412.337 507.913 412.241 507.527C412.145 507.142 412.151 506.739 412.258 506.356L419.622 501.694L414.12 498.516C414.009 498.443 413.886 498.391 413.756 498.362L410.27 497.578C409.886 497.512 409.491 497.565 409.138 497.73C408.785 497.895 408.491 498.165 408.296 498.502L405.006 504.746C404.558 505.474 403.854 506.008 403.032 506.244H402.822C402.965 505.788 403.063 505.319 403.116 504.844L397.6 501.68C397.437 501.591 397.25 501.557 397.066 501.582C396.882 501.607 396.711 501.691 396.578 501.82L391.342 505.88C391.03 506.161 390.78 506.504 390.608 506.888C390.437 507.271 390.348 507.686 390.348 508.106L390.656 513.076C390.666 513.948 390.379 514.797 389.844 515.484C388.982 516.516 388.174 517.59 387.422 518.704C387.174 519.036 386.853 519.305 386.484 519.492C386.115 519.679 385.708 519.779 385.294 519.782L381.934 519.614C381.533 519.612 381.139 519.722 380.797 519.933C380.456 520.143 380.18 520.445 380.002 520.804L376.838 527.888C376.718 528.19 376.708 528.524 376.807 528.833C376.907 529.142 377.111 529.407 377.384 529.582L381.108 531.724C381.226 532.032 381.256 532.367 381.192 532.69C380.931 533.807 380.734 534.939 380.604 536.078C380.474 536.943 380.078 537.746 379.47 538.374L374.836 542.574C374.546 542.873 374.326 543.233 374.193 543.628C374.06 544.023 374.016 544.443 374.066 544.856L374.934 549.91C374.949 550.049 374.994 550.182 375.067 550.301C375.139 550.419 375.237 550.52 375.354 550.596L380.884 553.788L380.954 547.46C381.26 547.282 381.622 547.226 381.968 547.304C382.313 547.382 382.616 547.588 382.816 547.88C383.089 548.273 383.393 548.643 383.726 548.986C383.999 549.277 384.192 549.634 384.285 550.022C384.379 550.41 384.369 550.815 384.258 551.198L381.892 557.68C381.795 557.931 381.788 558.208 381.873 558.463C381.957 558.718 382.127 558.936 382.354 559.08L387.884 562.272L389.382 558.156L391.51 552.864C391.965 552.136 392.673 551.603 393.498 551.366C394.228 551.186 394.944 550.952 395.64 550.666C395.795 550.59 395.965 550.549 396.138 550.546C396.311 550.543 396.483 550.578 396.64 550.649C396.798 550.72 396.938 550.825 397.051 550.956C397.164 551.087 397.246 551.242 397.292 551.408L398.482 555.328C398.511 555.456 398.566 555.576 398.643 555.682C398.72 555.788 398.817 555.877 398.93 555.944L404.53 559.136L403.55 553.018L405.244 551.688C405.561 551.412 405.815 551.069 405.986 550.685C406.158 550.3 406.244 549.883 406.238 549.462L405.93 544.492C405.929 543.622 406.214 542.776 406.742 542.084C407.596 541.062 408.898 540.516 409.654 539.396C410.088 538.766 410.55 537.758 411.306 537.786L414.666 537.954C415.065 537.956 415.457 537.848 415.799 537.64C416.14 537.432 416.416 537.134 416.598 536.778L419.748 529.68C419.882 529.349 419.885 528.978 419.755 528.645C419.624 528.312 419.372 528.041 419.048 527.888L416.332 526.74C415.989 526.578 415.71 526.304 415.543 525.964C415.375 525.623 415.327 525.235 415.408 524.864C415.659 523.746 415.851 522.615 415.982 521.476C416.112 520.612 416.508 519.809 417.116 519.18L421.75 514.98C422.17 514.549 422.44 513.995 422.52 513.398L426.72 510.122L421.148 506.93ZM400.148 539.62C394.548 544.072 389.06 542.854 388.038 536.904C387.016 530.954 391.65 523.38 397.32 518.928C402.99 514.476 407.54 514.812 408.52 520.762C409.5 526.712 405.776 535.154 400.106 539.62H400.148Z" fill="black"/>
<path d="M379.4 538.486L374.808 542.686C374.457 543.051 374.214 543.507 374.108 544.002L380.912 547.936V547.572C381.218 547.394 381.58 547.338 381.926 547.416C382.271 547.494 382.574 547.7 382.774 547.992L389.326 544.198L379.4 538.486Z" fill="#169387"/>
<path d="M391.104 525.732C391.618 524.925 392.179 524.149 392.784 523.408L386.246 519.628C385.949 519.771 385.623 519.843 385.294 519.838L381.934 519.67C381.422 519.667 380.926 519.846 380.534 520.174L390.586 525.984L391.104 525.732Z" fill="#169387"/>
<path d="M426.65 510.08C426.496 510.01 426.326 509.983 426.158 510.003C425.99 510.023 425.831 510.088 425.698 510.192L421.064 513.244C420.759 513.419 420.4 513.472 420.058 513.395C419.716 513.317 419.415 513.113 419.216 512.824C418.939 512.435 418.634 512.066 418.306 511.718C418.032 511.428 417.837 511.072 417.741 510.684C417.646 510.297 417.652 509.891 417.76 509.506L418.208 508.33L420.196 507.014C420.331 506.912 420.491 506.85 420.66 506.835C420.828 506.82 420.998 506.853 421.148 506.93L426.65 510.08Z" fill="#169387"/>
<path d="M413 508.75C412.952 508.682 412.901 508.617 412.846 508.554C412.573 508.266 412.379 507.913 412.283 507.527C412.187 507.142 412.193 506.739 412.3 506.356L419.664 501.694L414.162 498.516C414.051 498.443 413.928 498.391 413.798 498.362L410.312 497.578C409.928 497.512 409.533 497.565 409.18 497.73C408.827 497.895 408.533 498.165 408.338 498.502L405.048 504.746C404.864 505.077 404.611 505.363 404.306 505.586L411.712 509.87L413 508.75Z" fill="#169387"/>
<path d="M390.488 507.28L397.292 511.214L402.892 506.09C402.995 505.676 403.07 505.255 403.116 504.83L397.6 501.68C397.437 501.591 397.25 501.557 397.066 501.582C396.882 501.607 396.711 501.691 396.578 501.82L391.342 505.88C390.927 506.254 390.63 506.741 390.488 507.28Z" fill="#169387"/>
<g opacity="0.4">
<path opacity="0.4" d="M379.4 538.486L374.808 542.686C374.457 543.051 374.214 543.507 374.108 544.002L380.912 547.936V547.572C381.218 547.394 381.58 547.338 381.926 547.416C382.271 547.494 382.574 547.7 382.774 547.992L389.326 544.198L379.4 538.486Z" fill="white"/>
<path opacity="0.4" d="M391.104 525.732C391.618 524.925 392.179 524.149 392.784 523.408L386.246 519.628C385.949 519.771 385.623 519.843 385.294 519.838L381.934 519.67C381.422 519.667 380.926 519.846 380.534 520.174L390.586 525.984L391.104 525.732Z" fill="white"/>
<path opacity="0.4" d="M426.65 510.08C426.496 510.01 426.326 509.983 426.158 510.003C425.99 510.023 425.831 510.088 425.698 510.192L421.064 513.244C420.759 513.419 420.4 513.472 420.058 513.395C419.716 513.317 419.415 513.113 419.216 512.824C418.939 512.435 418.634 512.066 418.306 511.718C418.032 511.428 417.837 511.072 417.741 510.684C417.646 510.297 417.652 509.891 417.76 509.506L418.208 508.33L420.196 507.014C420.331 506.912 420.491 506.85 420.66 506.835C420.828 506.82 420.998 506.853 421.148 506.93L426.65 510.08Z" fill="white"/>
<path opacity="0.4" d="M413 508.75C412.952 508.682 412.901 508.617 412.846 508.554C412.573 508.266 412.379 507.913 412.283 507.527C412.187 507.142 412.193 506.739 412.3 506.356L419.664 501.694L414.162 498.516C414.051 498.443 413.928 498.391 413.798 498.362L410.312 497.578C409.928 497.512 409.533 497.565 409.18 497.73C408.827 497.895 408.533 498.165 408.338 498.502L405.048 504.746C404.864 505.077 404.611 505.363 404.306 505.586L411.712 509.87L413 508.75Z" fill="white"/>
<path opacity="0.4" d="M390.488 507.28L397.292 511.214L402.892 506.09C402.995 505.676 403.07 505.255 403.116 504.83L397.6 501.68C397.437 501.591 397.25 501.557 397.066 501.582C396.882 501.607 396.711 501.691 396.578 501.82L391.342 505.88C390.927 506.254 390.63 506.741 390.488 507.28Z" fill="white"/>
</g>
<path d="M427.952 515.862L427.084 510.808C427.079 510.648 427.029 510.493 426.939 510.36C426.849 510.228 426.723 510.124 426.576 510.06C426.429 509.997 426.267 509.977 426.109 510.003C425.951 510.029 425.803 510.099 425.684 510.206L421.05 513.258C420.745 513.433 420.386 513.486 420.044 513.409C419.702 513.331 419.401 513.127 419.202 512.838C418.925 512.449 418.621 512.079 418.292 511.732C418.021 511.443 417.829 511.089 417.733 510.704C417.638 510.32 417.642 509.917 417.746 509.534L420.112 503.136C420.177 502.976 420.206 502.804 420.196 502.631C420.186 502.458 420.138 502.29 420.055 502.139C419.972 501.987 419.856 501.856 419.715 501.755C419.575 501.654 419.414 501.585 419.244 501.554L415.758 500.77C415.374 500.7 414.977 500.751 414.623 500.916C414.269 501.082 413.976 501.354 413.784 501.694L410.508 507.938C410.047 508.661 409.342 509.193 408.52 509.436C407.785 509.621 407.064 509.86 406.364 510.15C406.209 510.224 406.039 510.262 405.867 510.263C405.695 510.264 405.525 510.227 405.368 510.155C405.212 510.083 405.074 509.977 404.963 509.846C404.852 509.715 404.771 509.56 404.726 509.394L403.536 505.474C403.508 505.318 403.438 505.172 403.334 505.052C403.229 504.933 403.093 504.844 402.941 504.797C402.79 504.749 402.628 504.744 402.474 504.782C402.319 504.82 402.178 504.9 402.066 505.012L396.83 509.114C396.518 509.395 396.268 509.738 396.096 510.122C395.925 510.505 395.836 510.92 395.836 511.34L396.158 516.31C396.155 517.18 395.87 518.025 395.346 518.718C394.475 519.746 393.662 520.821 392.91 521.938C392.657 522.264 392.334 522.529 391.967 522.715C391.599 522.902 391.194 523.004 390.782 523.016L387.422 522.848C387.021 522.846 386.627 522.956 386.286 523.166C385.944 523.377 385.668 523.679 385.49 524.038L382.34 531.08C382.207 531.414 382.206 531.785 382.339 532.119C382.472 532.452 382.728 532.722 383.054 532.872L385.77 534.034C386.111 534.196 386.387 534.468 386.555 534.805C386.722 535.143 386.771 535.527 386.694 535.896C386.444 537.015 386.252 538.146 386.12 539.284C385.984 540.147 385.589 540.948 384.986 541.58L380.352 545.78C380.059 546.078 379.837 546.438 379.702 546.833C379.566 547.227 379.52 547.648 379.568 548.062L380.436 553.116C380.441 553.276 380.491 553.432 380.581 553.564C380.671 553.697 380.797 553.801 380.944 553.864C381.091 553.927 381.253 553.947 381.411 553.921C381.569 553.896 381.717 553.825 381.836 553.718L386.47 550.666C386.775 550.492 387.134 550.438 387.476 550.516C387.818 550.594 388.119 550.797 388.318 551.086C388.591 551.479 388.895 551.849 389.228 552.192C389.5 552.484 389.693 552.84 389.789 553.227C389.884 553.614 389.879 554.02 389.774 554.404L387.408 560.788C387.343 560.948 387.314 561.121 387.324 561.294C387.334 561.466 387.382 561.634 387.465 561.786C387.548 561.938 387.664 562.069 387.805 562.17C387.945 562.271 388.106 562.339 388.276 562.37L391.762 563.154C392.146 563.225 392.543 563.174 392.897 563.008C393.251 562.843 393.544 562.571 393.736 562.23L397.012 555.986C397.473 555.264 398.179 554.732 399 554.488C399.733 554.302 400.453 554.068 401.156 553.788C401.311 553.715 401.479 553.676 401.651 553.674C401.822 553.672 401.991 553.708 402.147 553.779C402.303 553.849 402.442 553.953 402.554 554.083C402.666 554.213 402.747 554.365 402.794 554.53L403.984 558.45C404.012 558.607 404.082 558.753 404.186 558.872C404.291 558.992 404.427 559.08 404.579 559.128C404.73 559.176 404.892 559.181 405.047 559.143C405.201 559.105 405.342 559.025 405.454 558.912L410.69 554.81C411.002 554.53 411.252 554.186 411.424 553.803C411.595 553.419 411.684 553.004 411.684 552.584L411.362 547.614C411.365 546.745 411.65 545.9 412.174 545.206C413.045 544.179 413.858 543.104 414.61 541.986C414.863 541.661 415.186 541.396 415.553 541.209C415.921 541.023 416.326 540.92 416.738 540.908L420.098 541.076C420.499 541.079 420.893 540.969 421.235 540.758C421.576 540.548 421.852 540.246 422.03 539.886L425.194 532.802C425.327 532.469 425.328 532.097 425.195 531.764C425.062 531.43 424.806 531.161 424.48 531.01L421.764 529.848C421.423 529.687 421.147 529.415 420.979 529.077C420.812 528.74 420.763 528.355 420.84 527.986C421.09 526.868 421.282 525.737 421.414 524.598C421.553 523.737 421.948 522.937 422.548 522.302L427.182 518.102C427.466 517.808 427.683 517.455 427.816 517.068C427.949 516.681 427.995 516.269 427.952 515.862ZM405.622 542.784C399.952 547.25 394.52 546.032 393.498 540.082C392.476 534.132 396.298 525.69 401.898 521.238C407.498 516.786 413 517.99 414.022 523.94C415.044 529.89 411.278 538.332 405.622 542.784Z" fill="#169387"/>
<path d="M376.138 497.662L370.72 494.54C370.587 494.475 370.441 494.441 370.293 494.441C370.145 494.441 369.999 494.475 369.866 494.54L360.066 498.95C359.913 499.027 359.744 499.068 359.573 499.071C359.402 499.074 359.233 499.038 359.077 498.967C358.921 498.896 358.783 498.791 358.674 498.66C358.564 498.528 358.485 498.374 358.442 498.208C357.916 496.506 357.182 494.874 356.258 493.35C356.059 492.989 355.942 492.589 355.915 492.178C355.888 491.766 355.953 491.354 356.104 490.97L362.6 477.88C362.76 477.545 362.788 477.162 362.679 476.807C362.57 476.452 362.332 476.15 362.012 475.962L354.928 471.874C354.604 471.695 354.225 471.643 353.865 471.728C353.505 471.814 353.19 472.031 352.982 472.336L344.848 484.572C344.598 484.899 344.276 485.164 343.907 485.346C343.538 485.528 343.132 485.623 342.72 485.622C341.785 485.602 340.849 485.649 339.92 485.762V476.76L334.488 473.68C334.344 473.615 334.186 473.589 334.029 473.604C333.872 473.619 333.721 473.674 333.592 473.764L322.588 480.106C322.235 480.335 321.936 480.637 321.712 480.993C321.487 481.348 321.342 481.748 321.286 482.164L320.18 494.4C320.046 495.267 319.645 496.07 319.032 496.696C316.853 498.711 314.814 500.872 312.928 503.164C312.659 503.459 312.314 503.672 311.931 503.781C311.547 503.89 311.141 503.89 310.758 503.78L303.758 501.302C303.391 501.191 302.998 501.204 302.639 501.338C302.28 501.472 301.974 501.72 301.77 502.044L293.678 516.044C293.5 516.384 293.439 516.772 293.505 517.149C293.571 517.527 293.76 517.871 294.042 518.13L299.642 523.002C299.929 523.278 300.134 523.629 300.233 524.015C300.332 524.401 300.321 524.806 300.202 525.186C299.159 527.967 298.308 530.815 297.654 533.712C297.427 534.557 296.936 535.307 296.254 535.854L286.202 542.924C285.874 543.184 285.604 543.511 285.411 543.882C285.218 544.254 285.106 544.662 285.082 545.08V557.792C285.07 557.95 285.1 558.109 285.168 558.251C285.237 558.394 285.343 558.516 285.474 558.604L290.892 561.74L298.942 557.918C299.25 558.576 299.586 559.206 299.936 559.794C300.143 560.152 300.265 560.554 300.291 560.966C300.318 561.379 300.249 561.793 300.09 562.174L293.566 575.334C293.405 575.668 293.375 576.05 293.481 576.405C293.587 576.76 293.822 577.062 294.14 577.252L301.224 581.34C301.548 581.52 301.927 581.572 302.287 581.486C302.647 581.401 302.962 581.184 303.17 580.878L311.304 568.642C311.556 568.314 311.881 568.049 312.252 567.867C312.624 567.685 313.032 567.591 313.446 567.592C315.226 567.624 317.002 567.441 318.738 567.046C318.904 567.003 319.077 566.996 319.245 567.027C319.414 567.057 319.574 567.124 319.714 567.223C319.854 567.321 319.971 567.449 320.056 567.598C320.141 567.746 320.193 567.912 320.208 568.082L321.286 578.778C321.288 578.927 321.327 579.074 321.4 579.203C321.474 579.333 321.579 579.442 321.706 579.52L327.11 582.642L333.606 573.108C333.957 572.876 334.256 572.573 334.482 572.219C334.709 571.864 334.859 571.466 334.922 571.05L336.028 558.8C336.087 558.399 336.246 558.02 336.491 557.697C336.736 557.374 337.058 557.118 337.428 556.952C340.658 555.559 343.569 553.52 345.982 550.96C346.258 550.672 346.607 550.465 346.992 550.362C347.377 550.258 347.783 550.262 348.166 550.372L352.506 551.898C352.869 552.015 353.261 552.006 353.618 551.874C353.976 551.742 354.279 551.495 354.48 551.17L362.572 537.17C362.754 536.833 362.818 536.445 362.755 536.067C362.692 535.689 362.504 535.344 362.222 535.084L358.498 531.878C358.213 531.598 358.007 531.246 357.901 530.86C357.795 530.474 357.793 530.067 357.896 529.68C358.698 526.36 359.037 522.944 358.904 519.53C358.906 519.113 359.002 518.702 359.184 518.327C359.365 517.951 359.628 517.621 359.954 517.36L370.006 510.29C370.336 510.029 370.606 509.7 370.8 509.326C370.993 508.952 371.104 508.541 371.126 508.12L375.928 502.366L376.138 497.662ZM328.09 548.062C317.828 553.984 311.444 549.784 311.444 537.926C311.444 526.068 319.928 511.55 330.19 505.628C340.452 499.706 346.682 504.018 346.682 515.862C346.682 527.706 338.352 542.098 328.09 548.02V548.062Z" fill="#169387"/>
<path opacity="0.1" d="M376.138 497.662L370.72 494.54C370.587 494.475 370.441 494.441 370.293 494.441C370.145 494.441 369.999 494.475 369.866 494.54L360.066 498.95C359.913 499.027 359.744 499.068 359.573 499.071C359.402 499.074 359.233 499.038 359.077 498.967C358.921 498.896 358.783 498.791 358.674 498.66C358.564 498.528 358.485 498.374 358.442 498.208C357.916 496.506 357.182 494.874 356.258 493.35C356.059 492.989 355.942 492.589 355.915 492.178C355.888 491.766 355.953 491.354 356.104 490.97L362.6 477.88C362.76 477.545 362.788 477.162 362.679 476.807C362.57 476.452 362.332 476.15 362.012 475.962L354.928 471.874C354.604 471.695 354.225 471.643 353.865 471.728C353.505 471.814 353.19 472.031 352.982 472.336L344.848 484.572C344.598 484.899 344.276 485.164 343.907 485.346C343.538 485.528 343.132 485.623 342.72 485.622C341.785 485.602 340.849 485.649 339.92 485.762V476.76L334.488 473.68C334.344 473.615 334.186 473.589 334.029 473.604C333.872 473.619 333.721 473.674 333.592 473.764L322.588 480.106C322.235 480.335 321.936 480.637 321.712 480.993C321.487 481.348 321.342 481.748 321.286 482.164L320.18 494.4C320.046 495.267 319.645 496.07 319.032 496.696C316.853 498.711 314.814 500.872 312.928 503.164C312.659 503.459 312.314 503.672 311.931 503.781C311.547 503.89 311.141 503.89 310.758 503.78L303.758 501.302C303.391 501.191 302.998 501.204 302.639 501.338C302.28 501.472 301.974 501.72 301.77 502.044L293.678 516.044C293.5 516.384 293.439 516.772 293.505 517.149C293.571 517.527 293.76 517.871 294.042 518.13L299.642 523.002C299.929 523.278 300.134 523.629 300.233 524.015C300.332 524.401 300.321 524.806 300.202 525.186C299.159 527.967 298.308 530.815 297.654 533.712C297.427 534.557 296.936 535.307 296.254 535.854L286.202 542.924C285.874 543.184 285.604 543.511 285.411 543.882C285.218 544.254 285.106 544.662 285.082 545.08V557.792C285.07 557.95 285.1 558.109 285.168 558.251C285.237 558.394 285.343 558.516 285.474 558.604L290.892 561.74L298.942 557.918C299.25 558.576 299.586 559.206 299.936 559.794C300.143 560.152 300.265 560.554 300.291 560.966C300.318 561.379 300.249 561.793 300.09 562.174L293.566 575.334C293.405 575.668 293.375 576.05 293.481 576.405C293.587 576.76 293.822 577.062 294.14 577.252L301.224 581.34C301.548 581.52 301.927 581.572 302.287 581.486C302.647 581.401 302.962 581.184 303.17 580.878L311.304 568.642C311.556 568.314 311.881 568.049 312.252 567.867C312.624 567.685 313.032 567.591 313.446 567.592C315.226 567.624 317.002 567.441 318.738 567.046C318.904 567.003 319.077 566.996 319.245 567.027C319.414 567.057 319.574 567.124 319.714 567.223C319.854 567.321 319.971 567.449 320.056 567.598C320.141 567.746 320.193 567.912 320.208 568.082L321.286 578.778C321.288 578.927 321.327 579.074 321.4 579.203C321.474 579.333 321.579 579.442 321.706 579.52L327.11 582.642L333.606 573.108C333.957 572.876 334.256 572.573 334.482 572.219C334.709 571.864 334.859 571.466 334.922 571.05L336.028 558.8C336.087 558.399 336.246 558.02 336.491 557.697C336.736 557.374 337.058 557.118 337.428 556.952C340.658 555.559 343.569 553.52 345.982 550.96C346.258 550.672 346.607 550.465 346.992 550.362C347.377 550.258 347.783 550.262 348.166 550.372L352.506 551.898C352.869 552.015 353.261 552.006 353.618 551.874C353.976 551.742 354.279 551.495 354.48 551.17L362.572 537.17C362.754 536.833 362.818 536.445 362.755 536.067C362.692 535.689 362.504 535.344 362.222 535.084L358.498 531.878C358.213 531.598 358.007 531.246 357.901 530.86C357.795 530.474 357.793 530.067 357.896 529.68C358.698 526.36 359.037 522.944 358.904 519.53C358.906 519.113 359.002 518.702 359.184 518.327C359.365 517.951 359.628 517.621 359.954 517.36L370.006 510.29C370.336 510.029 370.606 509.7 370.8 509.326C370.993 508.952 371.104 508.541 371.126 508.12L375.928 502.366L376.138 497.662ZM328.09 548.062C317.828 553.984 311.444 549.784 311.444 537.926C311.444 526.068 319.928 511.55 330.19 505.628C340.452 499.706 346.682 504.018 346.682 515.862C346.682 527.706 338.352 542.098 328.09 548.02V548.062Z" fill="black"/>
<path d="M360.472 482.178L362.6 477.88C362.76 477.545 362.788 477.162 362.679 476.807C362.57 476.452 362.332 476.15 362.012 475.962L354.928 471.874C354.604 471.695 354.225 471.643 353.865 471.728C353.505 471.814 353.19 472.031 352.982 472.336L344.848 484.572C344.701 484.779 344.516 484.955 344.302 485.09L353.416 490.34L360.472 482.178Z" fill="#169387"/>
<path d="M297.024 534.986C296.807 535.3 296.542 535.579 296.24 535.812L286.188 542.882C285.92 543.087 285.696 543.344 285.53 543.638L291.662 547.18L305.004 539.592L297.024 534.986Z" fill="#169387"/>
<path d="M303.128 501.176C302.846 501.185 302.57 501.264 302.326 501.406C302.081 501.548 301.876 501.748 301.728 501.988L293.636 515.988C293.47 516.302 293.406 516.659 293.454 517.01L300.454 521.028L311.528 506.048L303.128 501.176Z" fill="#169387"/>
<path d="M321.496 481.38L330.12 486.364L339.92 480.764V476.76L334.488 473.68C334.344 473.616 334.186 473.589 334.029 473.604C333.872 473.619 333.721 473.674 333.592 473.764L322.588 480.106C322.109 480.417 321.73 480.859 321.496 481.38Z" fill="#169387"/>
<path d="M376.138 497.662C376.006 497.586 375.856 497.546 375.704 497.546C375.552 497.546 375.402 497.586 375.27 497.662L365.47 502.072C365.314 502.146 365.145 502.184 364.973 502.185C364.801 502.186 364.631 502.149 364.474 502.077C364.318 502.005 364.18 501.899 364.069 501.768C363.958 501.637 363.877 501.482 363.832 501.316C363.47 500.133 363.002 498.985 362.432 497.886L369.852 494.54C369.985 494.475 370.131 494.441 370.279 494.441C370.427 494.441 370.573 494.475 370.706 494.54L376.138 497.662Z" fill="#169387"/>
<g opacity="0.4">
<path opacity="0.4" d="M360.472 482.178L362.6 477.88C362.76 477.545 362.788 477.162 362.679 476.807C362.57 476.452 362.332 476.15 362.012 475.962L354.928 471.874C354.604 471.695 354.225 471.643 353.865 471.728C353.505 471.814 353.19 472.031 352.982 472.336L344.848 484.572C344.701 484.779 344.516 484.955 344.302 485.09L353.416 490.34L360.472 482.178Z" fill="white"/>
<path opacity="0.4" d="M297.024 534.986C296.807 535.3 296.542 535.579 296.24 535.812L286.188 542.882C285.92 543.087 285.696 543.344 285.53 543.638L291.662 547.18L305.004 539.592L297.024 534.986Z" fill="white"/>
<path opacity="0.4" d="M303.128 501.176C302.846 501.185 302.57 501.264 302.326 501.406C302.081 501.548 301.876 501.748 301.728 501.988L293.636 515.988C293.47 516.302 293.406 516.659 293.454 517.01L300.454 521.028L311.528 506.048L303.128 501.176Z" fill="white"/>
<path opacity="0.4" d="M321.496 481.38L330.12 486.364L339.92 480.764V476.76L334.488 473.68C334.344 473.616 334.186 473.589 334.029 473.604C333.872 473.619 333.721 473.674 333.592 473.764L322.588 480.106C322.109 480.417 321.73 480.859 321.496 481.38Z" fill="white"/>
<path opacity="0.4" d="M376.138 497.662C376.006 497.586 375.856 497.546 375.704 497.546C375.552 497.546 375.402 497.586 375.27 497.662L365.47 502.072C365.314 502.146 365.145 502.184 364.973 502.185C364.801 502.186 364.631 502.149 364.474 502.077C364.318 502.005 364.18 501.899 364.069 501.768C363.958 501.637 363.877 501.482 363.832 501.316C363.47 500.133 363.002 498.985 362.432 497.886L369.852 494.54C369.985 494.475 370.131 494.441 370.279 494.441C370.427 494.441 370.573 494.475 370.706 494.54L376.138 497.662Z" fill="white"/>
</g>
<path d="M376.6 511.186V498.488C376.622 498.332 376.599 498.173 376.533 498.03C376.467 497.887 376.362 497.765 376.229 497.68C376.097 497.595 375.943 497.549 375.785 497.548C375.628 497.548 375.473 497.592 375.34 497.676L365.54 502.086C365.385 502.163 365.215 502.203 365.042 502.205C364.869 502.207 364.698 502.171 364.541 502.098C364.384 502.026 364.245 501.919 364.135 501.787C364.024 501.654 363.945 501.498 363.902 501.33C363.379 499.631 362.645 498.004 361.718 496.486C361.521 496.124 361.406 495.723 361.382 495.312C361.358 494.901 361.425 494.489 361.578 494.106L368.102 480.946C368.263 480.613 368.293 480.231 368.187 479.876C368.081 479.521 367.846 479.219 367.528 479.028L360.444 474.94C360.119 474.757 359.737 474.702 359.374 474.788C359.01 474.874 358.693 475.093 358.484 475.402L350.294 487.68C350.039 488.003 349.716 488.266 349.349 488.45C348.981 488.634 348.577 488.734 348.166 488.744C346.387 488.708 344.61 488.886 342.874 489.276C342.713 489.311 342.546 489.31 342.386 489.276C342.225 489.241 342.073 489.172 341.94 489.074C341.808 488.976 341.698 488.851 341.618 488.707C341.537 488.564 341.488 488.404 341.474 488.24L340.396 477.558C340.406 477.402 340.37 477.245 340.293 477.109C340.215 476.972 340.1 476.86 339.961 476.788C339.822 476.715 339.664 476.684 339.508 476.7C339.352 476.715 339.203 476.775 339.08 476.872L328.076 483.228C327.724 483.459 327.424 483.762 327.198 484.116C326.971 484.471 326.822 484.87 326.76 485.286L325.654 497.522C325.524 498.387 325.128 499.19 324.52 499.818C322.337 501.833 320.293 503.994 318.402 506.286C318.135 506.578 317.791 506.79 317.41 506.896C317.029 507.003 316.626 507 316.246 506.888L309.176 504.424C308.809 504.311 308.415 504.322 308.055 504.456C307.696 504.591 307.391 504.84 307.188 505.166L299.11 519.166C298.929 519.501 298.865 519.887 298.929 520.263C298.992 520.638 299.179 520.981 299.46 521.238L305.13 526.124C305.418 526.4 305.621 526.751 305.718 527.138C305.815 527.524 305.8 527.93 305.676 528.308C304.639 531.091 303.788 533.939 303.128 536.834C302.901 537.675 302.41 538.421 301.728 538.962L291.676 546.046C291.345 546.304 291.074 546.63 290.88 547.002C290.687 547.374 290.576 547.783 290.556 548.202V560.914C290.536 561.068 290.56 561.225 290.626 561.366C290.691 561.507 290.794 561.626 290.924 561.711C291.054 561.796 291.206 561.842 291.361 561.845C291.516 561.848 291.669 561.806 291.802 561.726L301.602 557.302C301.758 557.229 301.927 557.19 302.099 557.189C302.271 557.189 302.441 557.225 302.598 557.298C302.754 557.37 302.892 557.475 303.003 557.607C303.114 557.738 303.195 557.892 303.24 558.058C303.769 559.76 304.502 561.391 305.424 562.916C305.629 563.275 305.748 563.677 305.772 564.09C305.797 564.503 305.725 564.916 305.564 565.296L299.04 578.456C298.881 578.789 298.853 579.17 298.962 579.523C299.071 579.876 299.309 580.175 299.628 580.36L306.6 584.42C306.924 584.6 307.303 584.652 307.663 584.566C308.023 584.481 308.338 584.264 308.546 583.958L316.68 571.722C316.93 571.395 317.252 571.13 317.621 570.948C317.99 570.766 318.396 570.672 318.808 570.672C320.588 570.705 322.365 570.522 324.1 570.126C324.261 570.092 324.428 570.092 324.589 570.127C324.75 570.162 324.901 570.231 325.034 570.329C325.166 570.427 325.276 570.552 325.356 570.695C325.437 570.839 325.486 570.998 325.5 571.162L326.578 581.858C326.575 582.014 326.615 582.168 326.696 582.301C326.776 582.435 326.892 582.543 327.031 582.613C327.17 582.683 327.327 582.713 327.482 582.698C327.637 582.684 327.785 582.625 327.908 582.53L338.912 576.174C339.262 575.946 339.56 575.646 339.785 575.293C340.009 574.941 340.156 574.544 340.214 574.13L341.32 561.88C341.45 561.017 341.852 560.217 342.468 559.598C344.647 557.583 346.686 555.422 348.572 553.13C348.839 552.833 349.184 552.618 349.568 552.509C349.952 552.4 350.359 552.402 350.742 552.514L357.742 554.978C358.107 555.096 358.501 555.088 358.861 554.956C359.221 554.824 359.527 554.576 359.73 554.25L367.822 540.25C368.002 539.912 368.064 539.523 367.999 539.145C367.933 538.767 367.742 538.422 367.458 538.164L361.788 533.278C361.5 533.006 361.296 532.657 361.199 532.273C361.103 531.888 361.118 531.484 361.242 531.108C362.283 528.322 363.135 525.469 363.79 522.568C364.017 521.728 364.508 520.982 365.19 520.44L375.242 513.37C375.616 513.13 375.932 512.809 376.167 512.431C376.402 512.054 376.55 511.628 376.6 511.186ZM333.578 551.142C323.302 557.064 314.986 552.262 314.986 540.404C314.986 528.546 323.302 514.14 333.578 508.204C343.854 502.268 352.156 507.084 352.156 518.928C352.156 530.772 343.77 545.206 333.508 551.142H333.578Z" fill="#169387"/>
<path d="M503.216 273.13H548.926V232.166C548.926 226.103 546.517 220.288 542.23 216C537.942 211.713 532.127 209.304 526.064 209.304C520.003 209.308 514.192 211.718 509.907 216.005C505.623 220.293 503.216 226.105 503.216 232.166V273.13Z" fill="#263238"/>
<path d="M517.594 262.014L484.876 263.274C483.742 262.294 477.26 254.566 477.26 254.566C477.26 254.566 459.48 252.284 459.382 252.928C459.284 253.572 476.868 272.402 478.604 274.292C479.1 274.931 479.738 275.447 480.466 275.799C481.195 276.152 481.995 276.331 482.804 276.322L512.75 278.198L517.594 262.014Z" fill="#FFA8A7"/>
<path d="M349.076 409.49L348.096 408.93C347.279 408.389 346.6 407.664 346.114 406.813C345.627 405.962 345.347 405.009 345.296 404.03V303.524C345.347 302.546 345.627 301.593 346.114 300.742C346.6 299.891 347.279 299.166 348.096 298.624L477.204 224.102C478.072 223.663 479.031 223.434 480.004 223.434C480.977 223.434 481.936 223.663 482.804 224.102L483.77 224.662C484.588 225.199 485.268 225.921 485.755 226.77C486.242 227.619 486.521 228.571 486.57 229.548V330.068C486.522 331.046 486.243 331.998 485.757 332.847C485.27 333.697 484.589 334.419 483.77 334.954L354.662 409.49C353.794 409.923 352.838 410.148 351.869 410.148C350.9 410.148 349.943 409.923 349.076 409.49Z" fill="#169387"/>
<path opacity="0.4" d="M486.626 229.1C486.43 227.63 485.226 227.098 483.826 227.91L354.718 302.46C353.88 302.975 353.19 303.699 352.716 304.56L346.108 300.738C346.586 299.876 347.274 299.148 348.11 298.624L477.204 224.102C478.072 223.663 479.031 223.434 480.004 223.434C480.977 223.434 481.936 223.663 482.804 224.102L483.77 224.662C484.539 225.152 485.192 225.802 485.685 226.568C486.178 227.334 486.499 228.198 486.626 229.1Z" fill="white"/>
<path opacity="0.1" d="M354.2 409.714C353.374 410.043 352.488 410.194 351.6 410.155C350.712 410.116 349.842 409.89 349.048 409.49L348.054 408.93C347.237 408.389 346.558 407.664 346.072 406.813C345.585 405.962 345.305 405.009 345.254 404.03V303.524C345.277 302.534 345.562 301.568 346.08 300.724L352.688 304.546C352.181 305.395 351.896 306.358 351.862 307.346V407.88C351.89 409.476 352.912 410.232 354.2 409.714Z" fill="black"/>
<path d="M364.938 307.99L374.654 302.39C375.354 301.984 375.928 302.306 375.928 303.132V314.08C375.905 314.525 375.776 314.957 375.552 315.342C375.328 315.727 375.015 316.053 374.64 316.292L364.952 321.766C364.238 322.172 363.664 321.766 363.664 321.01V310.258C363.677 309.805 363.8 309.362 364.022 308.967C364.244 308.572 364.558 308.237 364.938 307.99Z" fill="#FAFAFA"/>
<path d="M373.394 314.696C373.269 314.778 373.123 314.821 372.974 314.821C372.825 314.821 372.679 314.778 372.554 314.696L369.6 312.456C369.194 312.162 369.25 311.322 369.712 310.594C370.174 309.866 370.874 309.516 371.266 309.824L373.366 311.406L379.176 298.918C379.54 298.134 380.226 297.616 380.73 297.742C381.234 297.868 381.318 298.624 380.968 299.394L374.332 313.646C374.15 314.061 373.854 314.415 373.478 314.668L373.394 314.696Z" fill="#37474F"/>
<path d="M364.938 331.79L374.654 326.19C375.354 325.784 375.928 326.19 375.928 326.932V337.88C375.905 338.325 375.776 338.757 375.552 339.142C375.328 339.527 375.015 339.853 374.64 340.092L364.952 345.58C364.238 345.972 363.664 345.58 363.664 344.824V334.058C363.677 333.605 363.8 333.162 364.022 332.767C364.244 332.372 364.558 332.037 364.938 331.79Z" fill="#FAFAFA"/>
<path d="M373.394 338.482C373.269 338.564 373.123 338.607 372.974 338.607C372.825 338.607 372.679 338.564 372.554 338.482L369.6 336.256C369.194 335.948 369.25 335.108 369.712 334.38C370.174 333.652 370.874 333.302 371.266 333.61L373.366 335.192L379.176 322.704C379.54 321.92 380.226 321.402 380.73 321.542C381.234 321.682 381.318 322.41 380.968 323.194L374.332 337.446C374.149 337.857 373.853 338.207 373.478 338.454L373.394 338.482Z" fill="#37474F"/>
<path d="M364.938 355.576L374.654 349.976C375.354 349.556 375.928 349.892 375.928 350.704V361.68C375.902 362.122 375.772 362.552 375.548 362.934C375.325 363.316 375.013 363.64 374.64 363.878L364.952 369.366C364.238 369.772 363.664 369.436 363.664 368.61V357.844C363.677 357.391 363.8 356.948 364.022 356.553C364.244 356.158 364.558 355.823 364.938 355.576Z" fill="#FAFAFA"/>
<path d="M373.394 362.268C373.272 362.357 373.125 362.405 372.974 362.405C372.823 362.405 372.676 362.357 372.554 362.268L369.6 360.042C369.194 359.748 369.25 358.908 369.712 358.18C370.174 357.452 370.874 357.102 371.266 357.396L373.366 358.978L379.176 346.49C379.54 345.72 380.226 345.188 380.73 345.328C381.234 345.468 381.318 346.196 380.968 346.98L374.332 361.232C374.15 361.647 373.854 362.001 373.478 362.254L373.394 362.268Z" fill="#37474F"/>
<path d="M364.938 379.432L374.654 373.832C375.354 373.426 375.928 373.832 375.928 374.574V385.48C375.902 385.922 375.772 386.352 375.548 386.734C375.325 387.116 375.013 387.44 374.64 387.678L364.952 393.166C364.238 393.572 363.664 393.236 363.664 392.41V381.644C363.686 381.201 363.813 380.769 364.034 380.385C364.256 380 364.566 379.674 364.938 379.432Z" fill="#FAFAFA"/>
<path d="M373.394 386.124C373.272 386.213 373.125 386.261 372.974 386.261C372.823 386.261 372.676 386.213 372.554 386.124L369.6 383.898C369.194 383.59 369.25 382.764 369.712 382.022C370.174 381.28 370.874 380.958 371.266 381.252L373.366 382.834L379.176 370.346C379.54 369.576 380.226 369.044 380.73 369.184C381.234 369.324 381.318 370.052 380.968 370.836L374.332 385.088C374.149 385.499 373.853 385.849 373.478 386.096L373.394 386.124Z" fill="#37474F"/>
<path d="M387.94 297.756C387.94 299.072 389.088 299.478 390.502 298.666L427.42 277.344C428.118 276.944 428.713 276.386 429.157 275.715C429.602 275.044 429.884 274.279 429.982 273.48C429.982 272.164 428.834 271.744 427.42 272.57L390.502 293.878C389.803 294.281 389.208 294.842 388.763 295.515C388.318 296.188 388.037 296.955 387.94 297.756Z" fill="#455A64"/>
<path d="M387.94 305.764C387.94 307.094 389.088 307.5 390.502 306.688L469.462 261.16C470.162 260.758 470.758 260.198 471.202 259.525C471.647 258.852 471.928 258.084 472.024 257.282C472.024 255.966 470.876 255.56 469.462 256.372L390.502 301.9C389.804 302.301 389.209 302.859 388.765 303.53C388.32 304.2 388.038 304.966 387.94 305.764Z" fill="#F0F0F0"/>
<path d="M387.94 321.08C387.94 322.396 389.088 322.816 390.502 321.99L427.42 300.682C428.119 300.279 428.714 299.719 429.159 299.046C429.604 298.373 429.885 297.605 429.982 296.804C429.982 295.488 428.834 295.082 427.42 295.894L390.502 317.16C389.797 317.567 389.198 318.133 388.753 318.814C388.308 319.495 388.029 320.272 387.94 321.08Z" fill="#455A64"/>
<path d="M387.94 329.046C387.94 330.362 389.088 330.768 390.502 329.956L469.462 284.428C470.16 284.028 470.755 283.47 471.199 282.799C471.644 282.128 471.926 281.363 472.024 280.564C472.024 279.248 470.876 278.828 469.462 279.654L390.502 325.168C389.803 325.571 389.208 326.132 388.763 326.805C388.318 327.478 388.037 328.245 387.94 329.046Z" fill="#F0F0F0"/>
<path d="M387.94 345.776C387.94 347.176 389.088 347.512 390.502 346.686L427.42 325.378C428.12 324.976 428.716 324.416 429.16 323.743C429.605 323.07 429.886 322.302 429.982 321.5C429.982 320.184 428.834 319.778 427.42 320.59L390.502 341.912C389.804 342.313 389.209 342.871 388.765 343.542C388.32 344.212 388.038 344.978 387.94 345.776Z" fill="#455A64"/>
<path d="M387.94 353.798C387.94 355.114 389.088 355.52 390.502 354.708L469.462 309.18C470.16 308.78 470.755 308.222 471.199 307.551C471.644 306.88 471.926 306.115 472.024 305.316C472.024 304 470.876 303.58 469.462 304.406L390.502 349.934C389.804 350.335 389.209 350.893 388.765 351.564C388.32 352.234 388.038 353 387.94 353.798Z" fill="#F0F0F0"/>
<path d="M387.94 370.528C387.94 371.928 389.088 372.264 390.502 371.452L427.42 350.13C428.118 349.73 428.713 349.172 429.157 348.501C429.602 347.83 429.884 347.065 429.982 346.266C429.982 344.866 428.834 344.53 427.42 345.342L390.502 366.664C389.804 367.065 389.209 367.623 388.765 368.294C388.32 368.964 388.038 369.73 387.94 370.528Z" fill="#455A64"/>
<path d="M387.94 378.55C387.94 379.866 389.088 380.286 390.502 379.46L469.462 333.946C470.159 333.542 470.754 332.981 471.198 332.308C471.643 331.635 471.925 330.869 472.024 330.068C472.024 328.752 470.876 328.346 469.462 329.158L390.502 374.686C389.804 375.087 389.209 375.645 388.765 376.316C388.32 376.986 388.038 377.752 387.94 378.55Z" fill="#F0F0F0"/>
<path d="M502.796 484.292C500.183 487.093 497.304 489.635 494.2 491.88C493.708 492.197 493.296 492.624 492.996 493.126C492.59 493.98 491.946 496.08 495.796 497.438C497.757 498.116 499.841 498.364 501.906 498.166C503.971 497.968 505.97 497.328 507.766 496.29C510.944 494.288 511.098 490.144 514.094 487.778C516.32 486.028 519.106 485.58 520.898 483.298C522.158 481.702 521.822 479.574 521.178 476.956C520.464 474.086 520.128 471.916 519.19 472.14L519.344 473.456C518.154 475.346 512.022 475.906 509.292 474.604C507.298 477.945 505.129 481.179 502.796 484.292Z" fill="#263238"/>
<path d="M500.108 486.98C501.049 486.14 501.946 485.252 502.796 484.32C504.619 481.968 506.293 479.504 507.808 476.942C508.863 475.394 509.357 473.532 509.208 471.664C508.998 469.676 508.452 464.594 508.452 464.594L518.168 463.908L519.302 473.442C519.54 475.598 517.748 477.516 514.584 480.246C511.42 482.976 507.402 489.332 504.546 490.928C501.69 492.524 499.632 492.468 498.414 491.642C497.196 490.816 497 490.13 500.108 486.98Z" fill="#FFA8A7"/>
<path d="M546.462 485.16V483.76C545.888 485.482 543.214 492.86 539.168 496.556C535.948 499.496 531.552 502.884 530.432 506.16C529.312 509.436 536.55 510.71 539.56 510.178C543.575 509.511 547.259 507.544 550.046 504.578C551.782 502.45 552.846 499.93 554.12 498.25C555.394 496.57 558.208 494.708 558.88 492.776C559.08 490.967 558.879 489.137 558.292 487.414C557.816 485.608 557.298 483.62 556.682 483.788V484.908C555.226 486.05 553.422 486.657 551.572 486.63C550.088 486.602 546.462 486.28 546.462 485.16Z" fill="#263238"/>
<path d="M536.2 499.076C537.208 498.194 538.216 497.312 539.126 496.486C541.926 493.896 544.11 489.486 545.356 486.532C546.058 484.827 546.419 483.001 546.42 481.156V475.332H556.64V484.88V485.132C556.136 487.26 551.46 492.902 548.786 496.584C547.008 499.048 543.606 502.184 539.56 502.73C535.514 503.276 533.75 501.988 536.2 499.076Z" fill="#FFA8A7"/>
<path d="M554.652 326.4C562.576 343.69 554.372 404.632 554.372 404.632C554.61 407.432 557.816 412.962 559.006 425.31C560.406 439.912 556.794 476.564 556.794 476.564C555.236 477.469 553.48 477.979 551.68 478.053C549.88 478.126 548.089 477.759 546.462 476.984C546.462 476.984 536.732 421.768 534.898 407.264C533.302 394.594 530.236 364.816 530.236 364.816L521.038 407.278C522.131 411.393 522.733 415.622 522.83 419.878C522.69 428.46 518.7 466.078 518.7 466.078C518.7 466.078 515.144 468.15 508.452 467.17C508.452 467.17 501.998 417.792 502.194 406.284C502.292 400.124 504.994 334.548 504.994 334.548L554.652 326.4Z" fill="#169387"/>
<g opacity="0.15">
<path opacity="0.15" d="M530.236 364.816L527.66 350.676C527.66 350.676 516.782 348.422 511.854 343.774C515.263 347.768 519.719 350.731 524.72 352.328L527.604 364.704L522.382 401.104L530.236 364.816Z" fill="#263238"/>
</g>
<path d="M531.188 210.704L531.72 204.712C531.329 204.656 530.93 204.679 530.548 204.782C530.166 204.884 529.809 205.063 529.498 205.308C529.188 205.553 528.931 205.859 528.742 206.206C528.554 206.554 528.438 206.936 528.402 207.33C528.346 208.143 528.604 208.945 529.122 209.573C529.64 210.201 530.38 210.606 531.188 210.704Z" fill="#263238"/>
<path d="M531.51 211.306L536.354 207.75C536.136 207.415 535.852 207.128 535.519 206.906C535.186 206.685 534.811 206.534 534.418 206.463C534.024 206.392 533.62 206.403 533.231 206.494C532.841 206.586 532.475 206.756 532.154 206.994C531.517 207.495 531.096 208.221 530.976 209.023C530.856 209.824 531.047 210.641 531.51 211.306Z" fill="#263238"/>
<path d="M536.55 262.448C536.55 262.448 548.212 263.47 549.85 264.198C541.45 273.368 554.218 277.176 554.218 277.176L545.496 308.368C550.732 316.362 554.064 322.536 556.038 330.404C550.158 340.764 517.104 342.206 504.98 334.478C506.044 320.016 508.396 309.656 507.612 305.302C503.482 287.564 503.636 283.812 504.168 279.752C505.232 271.828 513.1 264.912 517.594 262.014H521.794L536.55 262.448Z" fill="#37474F"/>
<path d="M512.834 220.476C510.37 221.876 507.332 228.12 507.626 241.112C507.878 252.116 511.448 254.832 513.226 255.616C515.004 256.4 518.476 255.924 521.836 255.364V261.972C521.836 261.972 517.188 267.362 517.482 270.372C517.776 273.382 524.188 274.11 528.528 271.156C531.67 268.715 534.377 265.762 536.536 262.42L536.452 247.23C536.452 247.23 538.426 249.162 541.786 246.222C544.586 243.8 545.482 239.726 543.326 237.542C542.768 237.021 542.093 236.639 541.358 236.43C540.623 236.22 539.848 236.189 539.099 236.338C538.349 236.487 537.646 236.813 537.047 237.287C536.448 237.762 535.97 238.373 535.654 239.068C534.73 241.07 532.63 241.098 532.616 238.816C532.518 227.112 531.132 226.496 529.956 221.694C522.97 219.44 518 220.28 512.834 220.476Z" fill="#FFA8A7"/>
<path d="M519.918 238.34C519.909 238.524 519.936 238.708 519.998 238.881C520.06 239.055 520.155 239.214 520.279 239.351C520.402 239.487 520.551 239.598 520.718 239.677C520.884 239.756 521.064 239.801 521.248 239.81C521.432 239.82 521.616 239.792 521.789 239.731C521.962 239.669 522.122 239.573 522.258 239.45C522.395 239.326 522.506 239.177 522.585 239.011C522.663 238.844 522.709 238.664 522.718 238.48C522.727 238.296 522.7 238.113 522.638 237.939C522.576 237.766 522.481 237.606 522.357 237.47C522.234 237.333 522.085 237.223 521.918 237.144C521.752 237.065 521.572 237.02 521.388 237.01C521.204 237.001 521.02 237.028 520.847 237.09C520.674 237.152 520.514 237.247 520.377 237.371C520.241 237.494 520.13 237.644 520.051 237.81C519.972 237.976 519.927 238.156 519.918 238.34Z" fill="#263238"/>
<path d="M519.54 247.678L516.334 248.7C516.39 248.916 516.489 249.118 516.626 249.294C516.763 249.47 516.934 249.616 517.13 249.724C517.325 249.831 517.54 249.898 517.762 249.919C517.984 249.941 518.208 249.916 518.42 249.848C518.855 249.707 519.216 249.4 519.426 248.994C519.636 248.587 519.677 248.115 519.54 247.678Z" fill="#F28F8F"/>
<path d="M508.788 234.672L511.588 232.74C511.47 232.551 511.315 232.387 511.132 232.259C510.949 232.131 510.742 232.041 510.524 231.995C510.305 231.95 510.08 231.949 509.861 231.992C509.642 232.036 509.434 232.124 509.25 232.25C508.88 232.52 508.627 232.921 508.541 233.37C508.456 233.82 508.544 234.285 508.788 234.672Z" fill="#263238"/>
<path d="M523.95 235.12L521.15 233.174C521.268 232.986 521.422 232.824 521.604 232.698C521.787 232.571 521.993 232.483 522.21 232.438C522.427 232.394 522.651 232.394 522.869 232.439C523.086 232.483 523.292 232.572 523.474 232.698C523.846 232.966 524.102 233.366 524.19 233.815C524.279 234.265 524.193 234.732 523.95 235.12Z" fill="#263238"/>
<path d="M509.208 237.346C509.208 237.623 509.29 237.894 509.444 238.124C509.598 238.354 509.816 238.534 510.072 238.64C510.328 238.746 510.61 238.773 510.881 238.719C511.153 238.665 511.402 238.532 511.598 238.336C511.794 238.141 511.927 237.891 511.981 237.619C512.035 237.348 512.007 237.066 511.901 236.811C511.795 236.555 511.616 236.336 511.386 236.182C511.156 236.028 510.885 235.946 510.608 235.946C510.237 235.946 509.881 236.094 509.618 236.356C509.356 236.619 509.208 236.975 509.208 237.346Z" fill="#263238"/>
<path d="M515.746 236.548L515.522 244.878L511.14 243.52L515.746 236.548Z" fill="#F28F8F"/>
<path d="M521.85 255.364C525.392 254.902 532.672 252.816 533.806 249.932C533.35 251.39 532.455 252.67 531.244 253.6C529.074 255.476 521.85 257.576 521.85 257.576V255.364Z" fill="#F28F8F"/>
<path d="M520.128 210.83C517.603 210.83 515.102 211.329 512.77 212.297C510.437 213.265 508.319 214.684 506.536 216.472C504.753 218.26 503.34 220.383 502.379 222.718C501.418 225.053 500.927 227.555 500.934 230.08V232.558H510.328C512.441 232.56 514.483 231.795 516.075 230.404C517.666 229.014 518.698 227.093 518.98 224.998L519.33 232.558C521.063 232.545 522.73 231.889 524.008 230.718C525.286 229.546 526.083 227.942 526.246 226.216L526.358 224.984C526.523 227.047 527.459 228.971 528.98 230.375C530.5 231.778 532.493 232.558 534.562 232.558H535.402L536.354 219.006L520.128 210.83Z" fill="#263238"/>
<path d="M542.206 269.28C539.602 273.144 524.748 305.68 524.748 305.68C524.748 305.68 502.348 304.168 492.884 303.16C489.902 302.838 490.56 299.646 489.37 296.482C488.18 293.318 486.654 293.934 486.654 293.934V298.134C486.752 300.934 482.062 302.502 480.046 303.286C476.742 304.574 473.116 305.386 469.7 306.45C468.501 306.678 467.425 307.335 466.676 308.298C466.422 308.786 466.298 309.33 466.315 309.879C466.332 310.428 466.49 310.964 466.774 311.434C467.593 312.765 468.715 313.883 470.048 314.698C471.382 315.513 472.888 316.002 474.446 316.124C478.254 316.586 481.95 315.494 485.646 314.822C490.028 314.052 493.374 313.422 497.714 313.996C502.054 314.57 507.318 315.704 511.448 316.46C516.743 317.38 522.085 317.997 527.45 318.308C530.432 318.448 532.602 317.86 535.178 314.22C537.754 310.58 551.978 281.278 551.978 281.278C557.9 272.878 554.498 265.766 550.102 264.268C547.4 263.372 544.824 265.472 542.206 269.28Z" fill="#FFA8A7"/>
<path d="M451.808 237.976C452.938 238.128 454.05 238.395 455.126 238.774C457.887 239.715 460.247 241.566 461.818 244.024C462.5 245.237 462.788 246.631 462.644 248.014C462.603 248.377 462.494 248.729 462.322 249.05C461.929 249.604 461.391 250.04 460.768 250.31C459.78 250.988 458.615 251.359 457.418 251.379C456.22 251.399 455.044 251.066 454.034 250.422C451.298 248.837 448.409 247.533 445.41 246.53C443.897 246.061 442.33 245.784 440.748 245.704C439.836 245.727 438.956 246.047 438.242 246.614C437.992 245.991 437.919 245.312 438.03 244.65C438.141 243.988 438.433 243.37 438.872 242.862C440.42 240.767 442.606 239.229 445.102 238.48C447.272 237.817 449.563 237.645 451.808 237.976Z" fill="#FFA8A7"/>
<path d="M204.134 334.408C212.245 334.408 218.82 327.833 218.82 319.722C218.82 311.611 212.245 305.036 204.134 305.036C196.023 305.036 189.448 311.611 189.448 319.722C189.448 327.833 196.023 334.408 204.134 334.408Z" fill="#263238"/>
<path d="M168.98 585.806H179.326V568.11H168.98V585.806Z" fill="#FFA8A7"/>
<path d="M204.834 567.158L215.166 567.508L215.684 548.776L204.834 548.426V567.158Z" fill="#FFA8A7"/>
<path d="M169.666 416.392C169.666 426.262 168.392 497.494 168.392 497.494C168.154 500.294 165.48 505.572 166.068 516.492C166.838 531.318 168.546 576.958 168.546 576.958C170.331 577.834 172.287 578.308 174.275 578.347C176.263 578.386 178.236 577.988 180.054 577.182C180.054 577.182 189.182 516.548 191.03 501.848C192.654 489.038 195.398 454.248 195.398 454.248L200.998 496.094C199.803 501.486 199.374 507.019 199.724 512.53C200.2 519.32 204.19 561.404 204.19 561.404C205.989 562.423 207.991 563.033 210.052 563.19C212.114 563.347 214.185 563.048 216.118 562.314C216.118 562.314 221.354 502.338 221.466 496.094C221.606 488.996 218.022 416.434 218.022 416.434L169.666 416.392Z" fill="#37474F"/>
<path d="M216.608 356.29C222.67 361.274 233.618 371.396 233.618 371.396L216.538 380.79L205.674 351.656C205.674 351.656 210 350.816 216.608 356.29Z" fill="#169387"/>
<path opacity="0.1" d="M216.608 356.29C222.67 361.274 233.618 371.396 233.618 371.396L216.538 380.79L205.674 351.656C205.674 351.656 210 350.816 216.608 356.29Z" fill="black"/>
<path d="M173.18 358.754C173.18 358.754 169.316 362.632 169.316 372.012V392.27L169.022 430.532C183.862 438.358 202.622 438.806 218.428 427.242C218.428 427.242 217.672 378.074 217.672 370.01C217.672 361.946 213.192 351.488 200.872 350.774L184.926 354.484L173.18 358.754Z" fill="#169387"/>
<path d="M178.766 330.152C178.766 330.152 181.146 341.352 182.098 343.172C182.734 344.304 183.782 345.146 185.024 345.524L184.856 337.67L178.766 330.152Z" fill="#263238"/>
<path d="M181.748 314.15C180.918 314.05 180.076 314.142 179.287 314.419C178.498 314.696 177.784 315.15 177.198 315.746C175.238 317.748 176.33 324.02 178.766 330.152L183.246 330.67L181.748 314.15Z" fill="#263238"/>
<path d="M184.59 330.67C183.694 331.216 182.406 329.48 181.3 328.332C180.194 327.184 176.582 325.532 174.776 329.382C172.97 333.232 176.4 338.384 179.2 339.28C184.1 340.82 184.8 337.684 184.8 337.684L185.178 355.38C185.178 355.38 189.378 362.38 200.284 364.06C205.884 364.928 207.2 359.524 201.138 354.918V349.528C203.327 349.876 205.547 349.989 207.76 349.864C211.372 349.304 213.64 346.462 214.76 342.556C216.524 336.284 217.182 331.216 215.698 318.868C214.06 305.344 198.324 305.204 189.826 310.552C181.328 315.9 184.59 330.67 184.59 330.67Z" fill="#FFA8A7"/>
<path d="M184.59 332.182C184.142 332.182 182.42 329.382 181.3 328.332C179.746 326.932 181.748 314.15 181.748 314.15C181.343 313.043 181.269 311.842 181.535 310.694C181.801 309.545 182.396 308.499 183.246 307.682C185.374 305.358 188.916 305.092 194.978 304.14C198.156 303.636 202.972 302.74 206.178 302.166C209.958 301.452 213.094 300.766 215.782 303.034C216.827 303.947 217.565 305.161 217.896 306.508C218.227 307.856 218.134 309.273 217.63 310.566C217.353 311.154 216.99 311.697 216.552 312.176C215.836 313.039 214.896 313.688 213.836 314.052C213.836 314.052 212.184 315.522 206.43 316.222C201.121 316.62 195.787 316.517 190.498 315.914C188.832 315.69 188.482 317.314 187.586 321.71C186.76 325.588 186.102 332.154 184.59 332.182Z" fill="#263238"/>
<path d="M181.762 315.144L176.4 312.218C176.57 311.849 176.813 311.518 177.116 311.245C177.418 310.973 177.772 310.765 178.157 310.634C178.542 310.503 178.95 310.452 179.356 310.483C179.761 310.515 180.156 310.629 180.516 310.818C181.242 311.239 181.778 311.924 182.01 312.731C182.242 313.537 182.153 314.402 181.762 315.144Z" fill="#263238"/>
<path d="M201.18 349.514C201.18 349.514 193.13 347.89 190.316 346.392C188.661 345.53 187.304 344.188 186.424 342.542C186.846 344.189 187.598 345.732 188.636 347.078C190.694 349.71 201.236 351.656 201.236 351.656L201.18 349.514Z" fill="#F28F8F"/>
<path d="M199.248 328.654C199.237 328.974 199.132 329.282 198.946 329.542C198.761 329.802 198.503 330.002 198.204 330.115C197.906 330.229 197.581 330.253 197.269 330.183C196.957 330.113 196.673 329.953 196.452 329.722C196.231 329.491 196.083 329.201 196.027 328.886C195.97 328.572 196.007 328.248 196.134 327.955C196.26 327.662 196.471 327.412 196.738 327.238C197.006 327.063 197.319 326.972 197.638 326.974C197.854 326.978 198.068 327.024 198.266 327.111C198.464 327.198 198.643 327.323 198.793 327.479C198.943 327.635 199.06 327.819 199.138 328.021C199.216 328.223 199.254 328.438 199.248 328.654Z" fill="#263238"/>
<path d="M197.54 322.564L194.082 324.468C193.95 324.232 193.867 323.972 193.836 323.704C193.805 323.435 193.827 323.163 193.901 322.903C193.975 322.643 194.1 322.4 194.268 322.188C194.436 321.976 194.644 321.8 194.88 321.668C195.112 321.545 195.367 321.471 195.629 321.449C195.89 321.428 196.154 321.46 196.403 321.544C196.652 321.628 196.881 321.761 197.077 321.937C197.272 322.112 197.43 322.326 197.54 322.564Z" fill="#263238"/>
<path d="M200.452 339.812L204.134 341.212C204.054 341.458 203.925 341.686 203.755 341.881C203.585 342.076 203.378 342.235 203.146 342.349C202.913 342.462 202.66 342.528 202.402 342.542C202.144 342.556 201.885 342.518 201.642 342.43C201.141 342.236 200.736 341.853 200.514 341.364C200.291 340.875 200.269 340.318 200.452 339.812Z" fill="#F28F8F"/>
<path d="M213.64 323.88L210.49 321.458C210.637 321.236 210.829 321.046 211.055 320.903C211.28 320.759 211.532 320.664 211.796 320.625C212.06 320.585 212.33 320.601 212.587 320.673C212.845 320.744 213.084 320.869 213.29 321.038C213.7 321.378 213.965 321.861 214.03 322.39C214.095 322.918 213.955 323.451 213.64 323.88Z" fill="#263238"/>
<path d="M212.674 328.206C212.66 328.525 212.553 328.832 212.366 329.09C212.179 329.348 211.92 329.545 211.621 329.657C211.323 329.769 210.998 329.79 210.687 329.719C210.377 329.647 210.094 329.486 209.874 329.255C209.655 329.024 209.508 328.734 209.452 328.42C209.397 328.106 209.435 327.783 209.562 327.49C209.688 327.198 209.899 326.949 210.166 326.775C210.433 326.601 210.745 326.51 211.064 326.512C211.501 326.527 211.915 326.713 212.216 327.03C212.517 327.347 212.682 327.769 212.674 328.206Z" fill="#263238"/>
<path d="M204.456 326.666L204.974 336.382L210.042 334.646L204.456 326.666Z" fill="#F28F8F"/>
<path d="M179.326 580.696V579.226C180.32 579.66 182.616 588.424 186.718 592.162C189.98 595.144 194.432 598.574 195.566 601.892C196.7 605.21 189.364 607.24 186.312 606.708C182.784 606.078 176.638 603.586 175.112 601.276C173.586 598.966 172.858 595.55 171.598 593.856C170.338 592.162 167.398 590.272 166.782 588.256C166.58 586.428 166.786 584.578 167.384 582.838C167.86 581.004 168.378 579.002 169.008 579.17V580.29C170.475 581.455 172.301 582.074 174.174 582.04C175.672 582.152 179.34 581.858 179.326 580.696Z" fill="#263238"/>
<path d="M215.278 564.33C215.824 564.33 216.258 565.1 217.434 566.388C219.209 568.17 221.267 569.646 223.524 570.756C227.388 572.702 234.92 575.684 238.322 577.21C240.464 578.176 240.352 580.752 238.154 582.208C235.956 583.664 230.65 584.728 224.266 583.3C220.794 582.516 216.272 579.31 213.402 579.492C210.532 579.674 205.184 579.618 203.07 578.162C200.956 576.706 201.81 573.598 202.412 570.924C203.056 567.998 203.812 563.462 204.834 563.658V564.68C206.08 566.556 212.492 567.326 215.222 565.94L215.278 564.33Z" fill="#263238"/>
<path d="M195.398 454.206C200.74 452.534 205.652 449.715 209.79 445.946C209.79 445.946 206.99 451.154 198.758 455.984L200.522 492.468L195.398 454.206Z" fill="#263238"/>
<path d="M208.292 493.378L207.312 492.818C206.496 492.276 205.817 491.551 205.331 490.7C204.845 489.849 204.565 488.897 204.512 487.918V387.412C204.565 386.434 204.845 385.481 205.331 384.63C205.817 383.78 206.496 383.054 207.312 382.512L294.364 332.28C295.233 331.845 296.192 331.619 297.164 331.619C298.136 331.619 299.095 331.845 299.964 332.28L300.944 332.854C301.762 333.392 302.441 334.114 302.928 334.963C303.414 335.812 303.694 336.763 303.744 337.74V438.26C303.692 439.237 303.411 440.188 302.925 441.036C302.438 441.885 301.76 442.607 300.944 443.146L213.892 493.406C213.021 493.837 212.061 494.059 211.089 494.054C210.117 494.049 209.159 493.818 208.292 493.378Z" fill="#F5F5F5"/>
<path d="M255.822 373.244C270.9 364.536 283.136 371.606 283.136 389.022C283.136 406.438 270.9 427.62 255.822 436.328C240.744 445.036 228.494 437.98 228.494 420.564C228.494 403.148 240.8 381.966 255.822 373.244Z" fill="#455A64"/>
<path d="M255.626 386.964C260.512 384.164 264.488 386.418 264.488 392.074C264.328 395.158 263.442 398.16 261.902 400.836C260.362 403.512 258.212 405.787 255.626 407.474C250.726 410.274 246.764 408.02 246.764 402.364C246.924 399.281 247.81 396.279 249.35 393.602C250.89 390.926 253.04 388.652 255.626 386.964Z" fill="#169387"/>
<path d="M273.084 417.092C273.084 407.81 266.574 404.044 258.524 408.692L253.498 411.59C245.462 416.238 238.938 427.522 238.938 436.79V439.296C243.586 440.836 249.438 439.996 255.822 436.314C262.803 432.011 268.707 426.169 273.084 419.234V417.092Z" fill="#169387"/>
<path d="M303.8 337.264C303.604 335.794 302.4 335.262 301 336.074L213.948 386.348C213.113 386.867 212.425 387.59 211.946 388.448L205.338 384.626C205.816 383.764 206.504 383.036 207.34 382.512L294.364 332.28C295.231 331.839 296.191 331.609 297.164 331.609C298.137 331.609 299.097 331.839 299.964 332.28L300.944 332.84C301.709 333.331 302.359 333.98 302.852 334.743C303.344 335.506 303.668 336.366 303.8 337.264Z" fill="#FAFAFA"/>
<path d="M213.458 493.602C212.63 493.932 211.741 494.082 210.851 494.043C209.961 494.005 209.089 493.778 208.292 493.378L207.298 492.818C206.482 492.276 205.803 491.551 205.317 490.7C204.831 489.849 204.551 488.897 204.498 487.918V387.412C204.521 386.422 204.806 385.456 205.324 384.612L211.932 388.434C211.425 389.283 211.14 390.246 211.106 391.234V491.768C211.106 493.364 212.128 494.12 213.458 493.602Z" fill="#E0E0E0"/>
<path d="M225.792 468.318C225.792 471.118 227.794 472.336 230.272 470.908L281.4 441.48C282.705 440.632 283.79 439.487 284.569 438.139C285.347 436.791 285.797 435.279 285.88 433.724C285.88 430.924 283.878 429.706 281.4 431.134L230.314 460.632C229.014 461.473 227.928 462.605 227.143 463.94C226.358 465.274 225.895 466.774 225.792 468.318Z" fill="#169387"/>
<path d="M156.59 419.304C151.284 415.608 151.354 410.12 153.048 403.904C164.598 361.204 168.14 360.966 173.18 358.81L177.226 375.61L166.432 410.61C173.662 415.919 181.869 419.749 190.582 421.88C192.397 422.185 194.261 421.986 195.972 421.306C199.262 419.458 201.11 419.458 204.484 418.506V424.022C207.5 424.403 210.558 424.299 213.542 423.714C220.542 422.412 223.58 423.868 219.31 431.848C216.636 436.846 211.442 438.498 198.422 436.258C193.678 435.36 189 434.139 184.422 432.604C174.61 429.389 165.255 424.918 156.59 419.304Z" fill="#FFA8A7"/>
<path d="M173.18 358.754C173.18 358.754 178.15 361.876 179.214 369.702C180.278 377.528 172.746 398.822 172.746 398.822C172.746 398.822 160.58 397.66 155.54 391.668C155.54 391.668 162.54 372.194 163.94 367.798C164.545 365.61 165.719 363.62 167.341 362.031C168.964 360.443 170.979 359.312 173.18 358.754Z" fill="#169387"/>
<path opacity="0.1" d="M173.18 358.754C173.18 358.754 178.15 361.876 179.214 369.702C180.278 377.528 172.746 398.822 172.746 398.822C172.746 398.822 160.58 397.66 155.54 391.668C155.54 391.668 162.54 372.194 163.94 367.798C164.545 365.61 165.719 363.62 167.341 362.031C168.964 360.443 170.979 359.312 173.18 358.754Z" fill="black"/>
<path d="M303.8 361.498V367.728C303.8 367.728 300.44 372.838 296.8 374.728C293.16 376.618 293.216 384.164 297.71 385.228C302.204 386.292 308.392 380.734 308.91 377.682C309.428 374.63 308.322 361.176 303.8 361.498Z" fill="#FFA8A7"/>
</svg>
