<svg width="22" height="16" viewBox="0 0 22 16" fill="none" xmlns="http://www.w3.org/2000/svg">
<path d="M1 2.93875C1 2.42456 1.21071 1.93143 1.58577 1.56785C1.96083 1.20426 2.46952 1 2.99993 1H18.9994C19.5298 1 20.0385 1.20426 20.4136 1.56785C20.7886 1.93143 20.9993 2.42456 20.9993 2.93875V12.6325C20.9993 13.1467 20.7886 13.6398 20.4136 14.0034C20.0385 14.367 19.5298 14.5713 18.9994 14.5713H2.99993C2.46952 14.5713 1.96083 14.367 1.58577 14.0034C1.21071 13.6398 1 13.1467 1 12.6325V2.93875Z" stroke="#333333" stroke-opacity="0.5" stroke-width="2" stroke-linecap="round" stroke-linejoin="round"/>
<path d="M10.9999 10.6938C12.6567 10.6938 13.9998 9.39174 13.9998 7.78563C13.9998 6.17952 12.6567 4.8775 10.9999 4.8775C9.3431 4.8775 8 6.17952 8 7.78563C8 9.39174 9.3431 10.6938 10.9999 10.6938Z" stroke="#333333" stroke-opacity="0.5" stroke-width="2" stroke-linecap="round" stroke-linejoin="round"/>
<path d="M1 4.8775C2.06083 4.8775 3.07821 4.46898 3.82833 3.74181C4.57845 3.01464 4.99987 2.02838 4.99987 1" stroke="#333333" stroke-opacity="0.5" stroke-width="2" stroke-linecap="round" stroke-linejoin="round"/>
<path d="M17 14.5713C17 13.5429 17.4214 12.5566 18.1715 11.8295C18.9217 11.1023 19.939 10.6938 20.9999 10.6938" stroke="#333333" stroke-opacity="0.5" stroke-width="2" stroke-linecap="round" stroke-linejoin="round"/>
</svg>
